; ===========================================================================
; Song name: New song
;
; File converted by FroggestSpirit's Midi to GSC ASM converter 1.barelyabove0
; ===========================================================================

		SONG_START EQU $0 ; WARNING: unconverted

		include "pkms.asm" ; WARNING: unconverted

		SECTION "ROM", HOME[0] ; WARNING: unconverted
; ===========================================================================
NewSong_Channel1:
		tempo $70
		volume $77
		dutycycle 1
		notetype 12, $B8
Channel1_Bar1:
		note __, 2
		dutycycle 3
		octave 4
		note C_, 1
		note C_, 1
		note G_, 1
		note G_, 1
		octave 5
		note C_, 1
		note C_, 1
		octave 4
		note C_, 1
		note C_, 1
		note G_, 1
		note G_, 1
		octave 5
		note C_, 1
		note C_, 1
		octave 4
		note C_, 1
		note C_, 1
Channel1_Bar2:
		note G_, 1
		note G_, 1
		octave 5
		note C_, 1
		note C_, 1
		octave 4
		note C_, 1
		note C_, 1
		note G_, 1
		note G_, 1
		octave 5
		note C_, 1
		note C_, 1
		octave 4
		note C_, 1
		note C_, 1
		note G_, 1
		note G_, 1
		octave 5
		note C_, 1
		note C_, 1
Channel1_Bar3:
		octave 4
		note C_, 1
		note C_, 1
		note G_, 1
		note G_, 1
		octave 5
		note C_, 1
		note C_, 1
		octave 4
		note C_, 1
		note C_, 1
		note G_, 1
		note G_, 1
		octave 5
		note C_, 1
		note C_, 1
		octave 4
		note C_, 1
		note C_, 1
		note G_, 1
		note G_, 1
Channel1_Bar4:
		octave 5
		note C_, 1
		note C_, 1
		octave 4
		note C_, 1
		note C_, 1
		note G_, 1
		note G_, 1
		octave 5
		note C_, 1
		note C_, 1
		octave 4
		note C_, 1
		note C_, 1
		note G_, 1
		note G_, 1
		octave 5
		note C_, 1
		note C_, 1
		octave 4
		note C_, 1
		note C_, 1
Channel1_Bar5:
		note G_, 1
		note G_, 1
		octave 5
		note C_, 1
		note C_, 1
		octave 4
		note C_, 1
		note C_, 1
		note G_, 1
		note G_, 1
		octave 5
		note C_, 1
		note C_, 1
		octave 4
		note C_, 1
		note C_, 1
		note G_, 1
		note G_, 1
		octave 5
		note C_, 1
		note C_, 1
Channel1_Bar6:
		octave 4
		note C_, 1
		note C_, 1
		note G_, 1
		note G_, 1
		octave 5
		note C_, 1
		note C_, 1
		octave 4
		note C_, 1
		note C_, 1
		note G_, 1
		note G_, 1
		octave 5
		note C_, 1
		note C_, 1
		octave 4
		note C_, 1
		note C_, 1
		note G_, 1
		note G_, 1
Channel1_Bar7:
		octave 5
		note C_, 1
		note C_, 1
		octave 4
		note C_, 1
		note C_, 1
		note G_, 1
		note G_, 1
		octave 5
		note C_, 1
		note C_, 1
		octave 4
		note C_, 1
		note C_, 1
		note G_, 1
		note G_, 1
		octave 5
		note C_, 1
		note C_, 1
		octave 4
		note C_, 1
		note C_, 1
Channel1_Bar8:
		note G_, 1
		note G_, 1
		octave 5
		note C_, 1
		note C_, 1
		octave 4
		note C_, 1
		note C_, 1
		note G_, 1
		note G_, 1
		octave 5
		note C_, 1
		note C_, 1
		octave 4
		note C_, 1
		note C_, 1
		note G_, 1
		note G_, 1
		octave 5
		note C_, 1
		note C_, 1
Channel1_Bar9:
		octave 4
		note C_, 1
		note C_, 1
		note G_, 1
		note G_, 1
		octave 5
		note C_, 1
		note C_, 1
		octave 4
		note C_, 1
		note C_, 1
		note G_, 1
		note G_, 1
		octave 5
		note C_, 1
		note C_, 1
		octave 4
		note C_, 1
		note C_, 1
		note G_, 1
		note G_, 1
Channel1_Bar10:
		octave 5
		note C_, 1
		note C_, 1
		octave 4
		note C_, 1
		note C_, 1
		note G_, 1
		note G_, 1
		octave 5
		note C_, 1
		note C_, 1
		octave 4
		note C_, 1
		note C_, 1
		note G_, 1
		note G_, 1
		note A#, 1
		note A#, 1
		note D_, 1
		note D_, 1
Channel1_Bar11:
		note G_, 1
		note G_, 1
		note A#, 1
		note A#, 1
		note D_, 1
		note D_, 1
		note G_, 1
		note G_, 1
		note A#, 1
		note A#, 1
		note C_, 1
		note C_, 1
		note G_, 1
		note G_, 1
		octave 5
		note C_, 1
		note C_, 1
Channel1_Bar12:
		octave 4
		note C_, 1
		note C_, 1
		note G_, 1
		note G_, 1
		octave 5
		note C_, 1
		note C_, 1
		octave 4
		note C_, 1
		note C_, 1
		note G_, 1
		note G_, 1
		octave 5
		note C_, 1
		note C_, 1
		octave 4
		note C_, 1
		note C_, 1
		note G_, 1
		note G_, 1
Channel1_Bar13:
		octave 5
		note C_, 1
		note C_, 1
		octave 4
		note C_, 1
		note C_, 1
		note G_, 1
		note G_, 1
		octave 5
		note C_, 1
		note C_, 1
		octave 4
		note C_, 1
		note C_, 1
		note G_, 1
		note G_, 1
		octave 5
		note C_, 1
		note C_, 1
		octave 4
		note C_, 1
		note C_, 1
Channel1_Bar14:
		note G_, 1
		note G_, 1
		octave 5
		note C_, 1
		note C_, 1
		octave 4
		note D_, 1
		note D_, 1
		note F_, 1
		note F_, 1
		note A#, 1
		note A#, 1
		note D_, 1
		note D_, 1
		note F_, 1
		note F_, 1
		note A#, 1
		note A#, 1
Channel1_Bar15:
		note A#, 15
		note G_, 2
Channel1_Bar16:
		octave 5
		note C_, 2
		octave 4
		note A#, 1
		note G_, 2
		note F_, 3
		note G_, 4
		note C_, 2
		note D#, 2
Channel1_Bar17:
		note F_, 6
		note F#, 1
		note F_, 1
		note D#, 10
Channel1_Bar18:
		note C_, 2
		note D#, 2
		note C_, 1
		note D#, 2
		note D#, 2
		note C_, 1
		note D#, 2
		note F_, 16
Channel1_Bar19:
		note C_, 1
Channel1_Bar20:
		note G_, 1
		octave 5
		note C_, 2
		octave 4
		note A#, 1
		note G_, 2
		note F_, 3
		note G_, 4
		note A#, 4
Channel1_Bar21:
		note F_, 6
		note G_, 2
		note F_, 3
		note D#, 7
Channel1_Bar22:
		note C_, 2
		note D#, 2
		note C_, 1
		note D#, 2
		note D#, 2
		note C_, 1
		note D#, 2
		note F_, 2
Channel1_Bar23:
		note F_, 3
		note G_, 3
		note A#, 2
		note D#, 8
Channel1_Bar24:
		note C_, 1
		note C_, 1
		note G_, 1
		note G_, 1
		octave 5
		note C_, 1
		note C_, 1
		octave 4
		note C_, 1
		note C_, 1
		note G_, 1
		note G_, 1
		octave 5
		note C_, 1
		note C_, 1
		octave 4
		note C_, 1
		note C_, 1
		note G_, 1
Channel1_Bar25:
		note G_, 1
		octave 5
		note C_, 1
		note C_, 1
		octave 4
		note C_, 1
		note C_, 1
		note G_, 1
		note G_, 1
		octave 5
		note C_, 1
		note C_, 1
		octave 4
		note C_, 1
		note C_, 1
		note G_, 1
		note G_, 1
		note C_, 1
		note D_, 1
		note G_, 1
Channel1_Bar26:
		octave 5
		endchannel

; ===========================================================================
NewSong_Channel2:
		dutycycle 1
		notetype 12, $B8
Channel2_Bar1:
		octave 3
		note D_, 2
		note D#, 16
Channel2_Bar2:
		note D_, 3
		octave 2
		note A#, 3
		note G_, 2
		octave 3
		note C_, 16
Channel2_Bar3:
		note C_, 14
Channel2_Bar4:
		note D_, 2
		note D#, 16
Channel2_Bar5:
		note D_, 3
		octave 2
		note A#, 3
Channel2_Bar6:
		note G_, 2
		octave 3
		note F_, 6
		note D#, 16
Channel2_Bar7:
		note D#, 8
Channel2_Bar8:
		note D_, 2
		note D#, 16
Channel2_Bar9:
		note D_, 3
		octave 2
		note A#, 3
		note G_, 2
		octave 3
		note C_, 16
Channel2_Bar10:
		note C_, 14
Channel2_Bar11:
		note D_, 2
		note D#, 16
Channel2_Bar12:
		note D_, 3
		octave 2
		note A#, 3
Channel2_Bar13:
		note G_, 2
		octave 3
		note F_, 6
		note D#, 10
Channel2_Bar14:
		note G_, 6
		note F_, 10
Channel2_Bar15:
		note D#, 2
		note D#, 1
		note F_, 2
		note F_, 1
		note D#, 2
		note A#, 2
		note A#, 1
		note F_, 2
		note F_, 1
Channel2_Bar16:
		note D#, 16
Channel2_Bar17:
		note D#, 2
		note D#, 2
		note D#, 1
		note F_, 2
		note F_, 1
		note D#, 2
		note G#, 2
		note G#, 1
		note G_, 2
		note G_, 1
Channel2_Bar18:
		note D#, 2
		note G_, 6
		note G#, 1
		note G_, 1
		note F_, 8
Channel2_Bar19:
		note D#, 2
		note D#, 1
		note F_, 2
		note F_, 1
		note D#, 2
		note A#, 2
		note A#, 1
		note F_, 2
		note F_, 1
Channel2_Bar20:
		note D#, 16
Channel2_Bar21:
		note D#, 2
		note D#, 2
		note D#, 1
		note F_, 2
		note F_, 1
		note D#, 2
		note G#, 2
		note G#, 1
		note G_, 2
		note G_, 1
Channel2_Bar22:
		note D#, 2
		note G_, 6
		note G#, 1
		note G_, 1
		note F_, 4
		note D#, 2
Channel2_Bar23:
		note D_, 2
		note D_, 6
		note C_, 10
Channel2_Bar24:
		note D#, 6
		note D_, 16
Channel2_Bar25:
		note D_, 8
		endchannel

; ===========================================================================
NewSong_Channel3:
		notetype 12, $15
Channel3_Bar1:
		note __, 2
		intensity $10
		octave 4
		note C_, 1
		note C_, 13
Channel3_Bar2:
		note C_, 2
		note C_, 3
		note C_, 3
		note C_, 2
		note C_, 1
		note C_, 13
Channel3_Bar3:
		note C_, 2
		note C_, 3
		note C_, 3
Channel3_Bar4:
		note C_, 8
		note C_, 2
		note C_, 1
		note C_, 9
Channel3_Bar5:
		octave 3
		note A#, 3
		octave 4
		note C_, 3
		note C_, 3
		octave 3
		note G_, 3
Channel3_Bar6:
		octave 4
		note D_, 2
		note C_, 1
		note C_, 13
Channel3_Bar7:
		note C_, 2
		note C_, 4
		note C_, 4
		note C_, 1
		note D_, 1
		note D#, 1
		octave 3
		note G_, 2
		note A#, 2
Channel3_Bar8:
		note B_, 1
		octave 4
		note C_, 1
		note C_, 12
		note C_, 1
Channel3_Bar9:
		note D#, 1
		note D_, 1
		note C_, 3
		octave 3
		note A#, 3
		note G_, 2
		note G#, 1
		note G#, 5
Channel3_Bar10:
		note F_, 1
		note G_, 1
		note G#, 3
		note G#, 3
		note G#, 2
		note A#, 1
		note A#, 5
Channel3_Bar11:
		note G#, 1
		note A#, 3
		note A#, 2
		octave 4
		note D#, 2
		note D_, 2
		note C_, 1
		note C_, 9
Channel3_Bar12:
		note C_, 2
		note G_, 2
		note C_, 2
		note C_, 3
		octave 3
		note G_, 3
Channel3_Bar13:
		note A#, 2
		note G#, 1
		note G#, 13
Channel3_Bar14:
		note G#, 1
		note G#, 1
		note A#, 1
		note A#, 3
		note A#, 10
Channel3_Bar15:
		note A#, 2
		octave 4
		note C_, 3
		note D_, 3
		note D#, 2
		note F_, 3
		octave 3
		note G_, 3
Channel3_Bar16:
		note G#, 2
		note G#, 3
		note G#, 3
		note G#, 2
		note G#, 2
		note G#, 2
		note A#, 4
Channel3_Bar17:
		octave 4
		note C_, 3
		note D_, 3
		note D#, 2
		note F_, 3
		octave 3
		note G_, 3
Channel3_Bar18:
		note G#, 2
		octave 4
		note C_, 3
		note C_, 3
		note C_, 3
		octave 3
		note A#, 3
		note A#, 2
Channel3_Bar19:
		note A#, 2
		octave 4
		note C_, 3
		note D_, 3
		note D#, 2
		note F_, 3
		octave 3
		note G_, 3
Channel3_Bar20:
		note G#, 2
		note G#, 3
		note G#, 3
		note G#, 2
		note G#, 4
		note A#, 4
Channel3_Bar21:
		octave 4
		note C_, 3
		note D_, 3
		note D#, 2
		note F_, 3
		octave 3
		note G_, 3
Channel3_Bar22:
		note G#, 2
		octave 4
		note C_, 3
		note C_, 3
		note C_, 3
		octave 3
		note A#, 3
		note A#, 2
Channel3_Bar23:
		note A#, 2
		note G#, 3
		note G#, 3
		note G#, 2
		note G#, 6
Channel3_Bar24:
		note G#, 1
		note G#, 1
		note A#, 1
		note A#, 5
		note A#, 2
		note A#, 3
		note A#, 3
Channel3_Bar25:
		note A#, 16
Channel3_Bar26:
		note G_, 1
		endchannel

; ===========================================================================
NewSong_Channel4:
		notetype $C
		togglenoise 0
Channel4_Bar1:
		note __, 2
		note C_, 1
		note C_, 3
		note C#, 6
		note B_, 2
		note G_, 4
Channel4_Bar2:
		note C_, 3
		note C_, 3
		note C#, 1
		note C#, 1
		note C_, 2
		note C_, 2
		note C#, 3
Channel4_Bar3:
		note C#, 3
		note B_, 2
		note G_, 4
		note C_, 2
		note C_, 2
		note C#, 5
Channel4_Bar4:
		note B_, 1
		note C_, 2
		note B_, 4
		note C_, 1
		note C_, 3
		note C#, 6
Channel4_Bar5:
		note B_, 2
		note G_, 4
		note C_, 3
		note C_, 3
Channel4_Bar6:
		note C#, 1
		note C#, 1
		note C_, 1
		note C_, 3
		note C#, 6
		note B_, 2
		note G_, 3
Channel4_Bar7:
		note C#, 1
		note C_, 4
		note C#, 3
		note C#, 1
		note C_, 2
		note C_, 2
		note C#, 4
Channel4_Bar8:
		note B_, 1
		note C_, 1
		note G_, 2
		note G_, 2
		note G_, 2
		note G_, 2
		note B_, 2
		note G_, 2
Channel4_Bar9:
		note G_, 2
		note G_, 3
		note C_, 3
		note G_, 1
		note C#, 1
		note G_, 2
		note G_, 2
		note G_, 2
Channel4_Bar10:
		note G_, 1
		note C#, 1
		note G_, 2
		note B_, 2
		note G_, 2
		note G_, 2
		note G_, 2
		note G_, 2
		note G_, 2
Channel4_Bar11:
		note G_, 2
		note G_, 1
		note B_, 1
		note G_, 2
		note B_, 4
		note G_, 1
		note C_, 1
		note G_, 2
		note G_, 2
Channel4_Bar12:
		note G_, 2
		note G_, 2
		note B_, 2
		note G_, 2
		note G_, 2
		note G_, 3
		note C_, 3
Channel4_Bar13:
		note G_, 2
		note C_, 1
		note C_, 1
		note G_, 2
		note G_, 2
		note G_, 2
		note G_, 1
		note G_, 1
		note B_, 2
		note G_, 2
Channel4_Bar14:
		note G_, 1
		note C#, 1
		note C_, 1
		note G_, 1
		note G_, 1
		note C_, 1
		note B_, 2
		note C_, 3
		note C#, 1
		note C_, 2
		note B_, 2
Channel4_Bar15:
		note C#, 1
		note C#, 1
		note C_, 3
		note C_, 3
		note C_, 2
		note C_, 3
		note C_, 3
Channel4_Bar16:
		note C#, 2
		note B_, 4
		note B_, 4
		note C_, 2
		note C_, 2
		note B_, 4
Channel4_Bar17:
		note C_, 3
		note C_, 3
		note C#, 2
		note C_, 3
		note C_, 1
		note C#, 2
Channel4_Bar18:
		note C#, 2
		note C_, 1
		note G_, 1
		note B_, 2
		note C#, 2
		note G_, 2
		note C_, 2
		note G_, 2
		note B_, 2
Channel4_Bar19:
		note C_, 2
		note C_, 3
		note C_, 3
		note C#, 2
		note C_, 3
		note C_, 3
Channel4_Bar20:
		note C#, 2
		note B_, 4
		note B_, 4
		note C_, 2
		note C_, 2
		note B_, 3
Channel4_Bar21:
		note C#, 1
		note C_, 3
		note C_, 3
		note C#, 2
		note C_, 3
		note C_, 3
Channel4_Bar22:
		note C#, 2
		note C_, 1
		note G_, 1
		note B_, 2
		note C#, 2
		note G_, 2
		note C_, 2
		note G_, 2
		note B_, 4
Channel4_Bar23:
		note B_, 4
		note B_, 4
		note B_, 4
		note B_, 4
Channel4_Bar24:
		note B_, 4
		note B_, 4
		note B_, 4
		note B_, 2
Channel4_Bar25:
		note G_, 1
		note G_, 1
		note B_, 14
Channel4_Bar26:
		endchannel
