; ===========================================================================
; Song name: New song
;
; File converted by FroggestSpirit's Midi to GSC ASM converter 1.barelyabove0
; ===========================================================================

		SONG_START EQU $0 ; WARNING: unconverted

		include "pkms.asm" ; WARNING: unconverted

		SECTION "ROM", HOME[0] ; WARNING: unconverted
; ===========================================================================
NewSong_Channel1:
		tempo $70
		volume $77
		dutycycle 1
		notetype 12, $B8
Channel1_Bar1:
		note __, 16
Channel1_Bar2:
		dutycycle 2
		octave 3
		note C#, 1
		note C#, 1
		octave 2
		note G#, 1
		note G#, 1
		octave 3
		note F_, 1
		note F_, 1
		note C#, 1
		note C#, 1
		note G#, 1
		note G#, 1
		note F_, 1
		note F_, 1
		octave 4
		note C#, 1
		note C#, 1
		octave 3
		note G#, 1
		note G#, 1
Channel1_Bar3:
		octave 4
		note F#, 1
		note F#, 1
		octave 3
		note A#, 1
		note A#, 1
		octave 4
		note A#, 1
		note A#, 1
		note C#, 1
		note C#, 1
		octave 5
		note C#, 1
		note C#, 1
		octave 4
		note F#, 1
		note F#, 1
		note A#, 1
		note A#, 1
		octave 5
		note C#, 1
		note C#, 1
Channel1_Bar4:
		octave 3
		note C#, 1
		note C#, 1
		octave 2
		note G#, 1
		note G#, 1
		octave 3
		note F_, 1
		note F_, 1
		note C#, 1
		note C#, 1
		note G#, 1
		note G#, 1
		note F_, 1
		note F_, 1
		octave 4
		note C#, 1
		note C#, 1
		octave 3
		note G#, 1
		note G#, 1
Channel1_Bar5:
		octave 4
		note F#, 1
		note F#, 1
		octave 3
		note A#, 1
		note A#, 1
		octave 4
		note A#, 1
		note A#, 1
		note C#, 1
		note C#, 1
		octave 5
		note C#, 1
		note C#, 1
		octave 4
		note F_, 1
		note F_, 1
		note G#, 1
		note G#, 1
		octave 5
		note C#, 1
		note C#, 1
Channel1_Bar6:
		octave 3
		note C#, 1
		note C#, 1
		octave 2
		note G#, 1
		note G#, 1
		octave 3
		note F_, 1
		note F_, 1
		note C#, 1
		note C#, 1
		note G#, 1
		note G#, 1
		note F_, 1
		note F_, 1
		octave 4
		note C#, 1
		note C#, 1
		octave 3
		note G#, 1
		note G#, 1
Channel1_Bar7:
		octave 4
		note F#, 1
		note F#, 1
		octave 3
		note A#, 1
		note A#, 1
		octave 4
		note A#, 1
		note A#, 1
		note C#, 1
		note C#, 1
		octave 5
		note C#, 1
		note C#, 1
		octave 4
		note F#, 1
		note F#, 1
		note A#, 1
		note A#, 1
		octave 5
		note C#, 1
		note C#, 1
Channel1_Bar8:
		octave 3
		note C#, 1
		note C#, 1
		octave 2
		note G#, 1
		note G#, 1
		octave 3
		note F_, 1
		note F_, 1
		note C#, 1
		note C#, 1
		note G#, 1
		note G#, 1
		note F_, 1
		note F_, 1
		octave 4
		note C#, 1
		note C#, 1
		octave 3
		note G#, 1
		note G#, 1
Channel1_Bar9:
		octave 4
		note F#, 1
		note F#, 1
		octave 3
		note A#, 1
		note A#, 1
		octave 4
		note A#, 1
		note A#, 1
		note C#, 1
		note C#, 1
		octave 5
		note C#, 1
		note C#, 1
		octave 4
		note F#, 1
		note F#, 1
		note B_, 1
		note B_, 1
		note E_, 1
		note E_, 1
Channel1_Bar10:
		octave 5
		note E_, 1
		note E_, 1
		octave 4
		note B_, 1
		note B_, 1
		note G#, 1
		note G#, 1
		octave 5
		note E_, 1
		note E_, 1
		octave 4
		note B_, 1
		note B_, 1
		note G#, 1
		note G#, 1
		octave 5
		note E_, 1
		note E_, 1
		octave 4
		note B_, 1
		note B_, 1
Channel1_Bar11:
		octave 5
		note E_, 1
		note E_, 1
		octave 4
		note B_, 1
		note B_, 1
		note G#, 1
		note G#, 1
		octave 5
		note E_, 1
		note E_, 1
		octave 4
		note B_, 1
		note B_, 1
		note G#, 1
		note G#, 1
		octave 5
		note E_, 1
		note E_, 1
		octave 4
		note B_, 1
		note B_, 1
Channel1_Bar12:
		octave 5
		note E_, 1
		note E_, 1
		note C#, 1
		note C#, 1
		octave 4
		note A_, 1
		note A_, 1
		octave 5
		note E_, 1
		note E_, 1
		note C#, 1
		note C#, 1
		octave 4
		note A_, 1
		note A_, 1
		octave 5
		note E_, 1
		note E_, 1
		note C#, 1
		note C#, 1
Channel1_Bar13:
		note F#, 1
		note F#, 1
		note D#, 1
		note D#, 1
		octave 4
		note B_, 1
		note B_, 1
		octave 5
		note F#, 1
		note F#, 1
		note D#, 1
		note D#, 1
		octave 4
		note B_, 1
		note B_, 1
		octave 5
		note F#, 1
		note F#, 1
		note D#, 1
		note D#, 1
Channel1_Bar14:
		note E_, 1
		note E_, 1
		octave 4
		note B_, 1
		note B_, 1
		note G#, 1
		note G#, 1
		octave 5
		note E_, 1
		note E_, 1
		octave 4
		note B_, 1
		note B_, 1
		note G#, 1
		note G#, 1
		octave 5
		note E_, 1
		note E_, 1
		octave 4
		note B_, 1
		note B_, 1
Channel1_Bar15:
		octave 5
		note E_, 1
		note E_, 1
		note C#, 1
		note C#, 1
		octave 4
		note A_, 1
		note A_, 1
		octave 5
		note E_, 1
		note E_, 1
		note C#, 1
		note C#, 1
		octave 4
		note A_, 1
		note A_, 1
		octave 5
		note E_, 1
		note E_, 1
		note C#, 1
		note C#, 1
Channel1_Bar16:
		note E_, 1
		note E_, 1
		note C#, 1
		note C#, 1
		octave 4
		note A_, 1
		note A_, 1
		octave 5
		note E_, 1
		note E_, 1
		note C#, 1
		note C#, 1
		octave 4
		note A_, 1
		note A_, 1
		octave 5
		note E_, 1
		note E_, 1
		note C#, 1
		note C#, 1
Channel1_Bar17:
		note D#, 1
		note D#, 1
		octave 4
		note B_, 1
		note B_, 1
		note F#, 1
		note F#, 1
		octave 5
		note D#, 1
		note D#, 1
		octave 4
		note B_, 1
		note B_, 1
		note F#, 1
		note F#, 1
		octave 5
		note D#, 1
		note D#, 1
		octave 4
		note B_, 1
		note B_, 1
Channel1_Bar18:
		octave 3
		note E_, 1
		note E_, 1
		octave 2
		note B_, 1
		note B_, 1
		octave 3
		note G#, 1
		note G#, 1
		note E_, 1
		note E_, 1
		note B_, 1
		note B_, 1
		note G#, 1
		note G#, 1
		octave 4
		note E_, 1
		note E_, 1
		octave 3
		note B_, 1
		note B_, 1
Channel1_Bar19:
		octave 4
		note F#, 1
		note F#, 1
		octave 3
		note B_, 1
		note B_, 1
		octave 4
		note B_, 1
		note B_, 1
		note D#, 1
		note D#, 1
		note G#, 1
		note G#, 1
		octave 3
		note B_, 1
		note B_, 1
		octave 4
		note F#, 1
		note F#, 1
		note D#, 1
		note D#, 1
Channel1_Bar20:
		octave 3
		note G#, 1
		note G#, 1
		note E_, 1
		note E_, 1
		note B_, 1
		note B_, 1
		note G#, 1
		note G#, 1
		octave 4
		note C#, 1
		note C#, 1
		octave 3
		note B_, 1
		note B_, 1
		octave 4
		note E_, 1
		note E_, 1
		note C#, 1
		note C#, 1
Channel1_Bar21:
		note A_, 1
		note A_, 1
		note C#, 1
		note C#, 1
		octave 5
		note C#, 1
		note C#, 1
		octave 4
		note E_, 1
		note E_, 1
		note B_, 1
		note B_, 1
		note F#, 1
		note F#, 1
		octave 5
		note D#, 1
		note D#, 1
		octave 4
		note D#, 1
		note D#, 1
Channel1_Bar22:
		octave 3
		note E_, 1
		note E_, 1
		octave 2
		note B_, 1
		note B_, 1
		octave 3
		note G#, 1
		note G#, 1
		note E_, 1
		note E_, 1
		note B_, 1
		note B_, 1
		note G#, 1
		note G#, 1
		octave 4
		note E_, 1
		note E_, 1
		octave 3
		note B_, 1
		note B_, 1
Channel1_Bar23:
		octave 4
		note F#, 1
		note F#, 1
		octave 3
		note B_, 1
		note B_, 1
		octave 4
		note B_, 1
		note B_, 1
		note D#, 1
		note D#, 1
		note G#, 1
		note G#, 1
		octave 3
		note B_, 1
		note B_, 1
		octave 4
		note F#, 1
		note F#, 1
		note D#, 1
		note D#, 1
Channel1_Bar24:
		octave 3
		note G#, 1
		note G#, 1
		note E_, 1
		note E_, 1
		note B_, 1
		note B_, 1
		note G#, 1
		note G#, 1
		octave 4
		note C#, 1
		note C#, 1
		octave 3
		note G#, 1
		note G#, 1
		note B_, 1
		note B_, 1
		note E_, 1
		note E_, 16
Channel1_Bar25:
		note E_, 1
Channel1_Bar26:
		note C#, 1
		note C#, 1
		octave 2
		note G#, 1
		note G#, 1
		octave 3
		note F_, 1
		note F_, 1
		note C#, 1
		note C#, 1
		note G#, 1
		note G#, 1
		note F_, 1
		note F_, 1
		octave 4
		note C#, 1
		note C#, 1
		octave 3
		note G#, 1
		endchannel
