Music_Placeholder_Ch1_Intro:
	notetype 1, $a3
	octave 5
	note __, 12
	stereopanning $ff
	intensity $72
	note F#, 1
	intensity $a2
	note F#, 11

	stereopanning $f
	intensity $72
	note G_, 1
	intensity $a2
	note G_, 5

	stereopanning $f0
	intensity $62
	note F#, 1
	intensity $92
	note F#, 5

	stereopanning $f
	octave 6
	intensity $72
	note D_, 1
	intensity $a2
	note D_, 5

	stereopanning $f0
	octave 5
	intensity $62
	note G_, 1
	intensity $92
	note G_, 5

	stereopanning $f
	intensity $72
	note B_, 1
	intensity $a2
	note B_, 5

	stereopanning $f0
	octave 6
	intensity $62
	note D_, 1
	intensity $92
	note D_, 5

	stereopanning $f
	octave 5
	intensity $52
	note F#, 1
	intensity $82
	note F#, 5

	stereopanning $f0
	intensity $62
	note B_, 1
	intensity $a2
	note B_, 5

	stereopanning $f
	intensity $52
	note G_, 1
	intensity $82
	note G_, 5

	stereopanning $f0
	intensity $42
	note F#, 1
	intensity $72
	note F#, 5
	
	stereopanning $f
	octave 6
	intensity $52
	note D_, 1
	intensity $82
	note D_, 5

	stereopanning $f0
	octave 5
	intensity $42
	note G_, 1
	intensity $72
	note G_, 5

	stereopanning $f
	intensity $52
	note B_, 1
	intensity $82
	note B_, 5

	stereopanning $f0
	intensity $32
	octave 6
	note D_, 1
	intensity $62
	note D_, 5

	stereopanning $f
	octave 5
	intensity $72
	note E_, 1
	intensity $a2
	note E_, 5

	stereopanning $f0
	intensity $32
	note B_, 1
	intensity $62
	note B_, 5

	stereopanning $f
	intensity $72
	note F#, 1 
	intensity $a2
	note F#, 5

	stereopanning $f0
	intensity $52
	note E_, 1
	intensity $82
	note E_, 5

	stereopanning $f
	intensity $72
	note G_, 1
	intensity $a2
	note G_, 5

	stereopanning $f0
	intensity $42
	note F#, 1
	intensity $72
	note F#, 5

	stereopanning $f
	intensity $72
	note F#, 1
	intensity $a2
	note F#, 5

	stereopanning $f0
	intensity $42
	note G_, 1
	intensity $72
	note G_, 5

	stereopanning $f
	intensity $72
	note G_, 1
	intensity $a2
	note G_, 5

	stereopanning $f0
	intensity $42
	note F#, 1
	intensity $72
	note F#, 5

	stereopanning $f
	intensity $72
	note F#, 1
	intensity $a2
	note F#, 5

	stereopanning $f0
	intensity $52
	note G_, 1
	intensity $82
	note G_, 5

	stereopanning $f
	intensity $72
	note D_, 1
	intensity $a2
	note D_, 5

	stereopanning $f0
	intensity $52
	note F#, 1
	intensity $82
	note F#, 5
	endchannel