Music_Testimony2001:
; Phoenix Wright: Ace Attorney - Cross-Examination 2001 ~ Allegro
; Demixed by TriteHexagon
	musicheader 4, 1, Music_Testimony2001_Ch1
	musicheader 1, 2, Music_Testimony2001_Ch2
	musicheader 1, 3, Music_Testimony2001_Ch3
	musicheader 1, 4, Music_Testimony2001_Ch4

; ============================================================================================================
Music_Testimony2001_Ch1:
	tempo 143
	volume $77
	dutycycle $1
	stereopanning $ff
	vibrato $12, $14

Music_Testimony2001_Ch1_master:
;Bar1:
	notetype $c, $e2
	octave 3
	note A_, 2
	octave 2
	note A_, 1
	note __, 1
	note A_, 1
	note __, 1
	octave 3
	note B_, 2
	octave 2
	note A_, 1
	note __, 1
	note A_, 1
	note __, 1
	octave 4
	note C_, 2
	octave 2
	note A_, 1
	note __, 1
;Bar2:
	note A_, 1
	note __, 1
	octave 3
	note B_, 2
	octave 2
	note A_, 1
	note __, 1
	note A_, 1
	note __, 1
	octave 4
	note D_, 2
	octave 2
	note A_, 1
	note __, 1
	octave 3
	note B_, 2
	octave 2
	note A_, 1
	note __, 1
;Bar3:
	octave 4
	note C_, 2
	octave 2
	note A_, 1
	note __, 1
	note A_, 1
	note __, 1
	octave 3
	note B_, 2
	octave 2
	note A_, 1
	note __, 1
	note A_, 1
	note __, 1
	octave 3
	note G_, 2
	octave 2
	note A_, 1
	note __, 1
;Bar4:
	note A_, 1
	note __, 1
	octave 3
	note E_, 2
	octave 2
	note A_, 1
	note __, 1
	note A_, 1
	note __, 1
	octave 3
	note G_, 2
	octave 2
	note A_, 1
	note __, 1
	octave 3
	note B_, 2
	octave 2
	note A_, 1
	note __, 1
;Bar5:
	octave 3
	note A_, 2
	octave 2
	note A_, 1
	note __, 1
	note A_, 1
	note __, 1
	octave 3
	note B_, 2
	octave 2
	note A_, 1
	note __, 1
	note A_, 1
	note __, 1
	octave 4
	note C_, 2
	octave 2
	note A_, 1
	note __, 1
;Bar6:
	note A_, 1
	note __, 1
	octave 3
	note B_, 2
	octave 2
	note A_, 1
	note __, 1
	note A_, 1
	note __, 1
	octave 4
	note D_, 2
	octave 2
	note A_, 1
	note __, 1
	octave 3
	note B_, 2
	octave 2
	note A_, 1
	note __, 1
;Bar7:
	octave 4
	note C_, 2
	octave 2
	note A_, 1
	note __, 1
	note A_, 1
	note __, 1
	octave 3
	note B_, 2
	octave 2
	note A_, 1
	note __, 1
	note A_, 1
	note __, 1
	octave 3
	note G_, 2
	octave 2
	note A_, 1
	note __, 1
;Bar8:
	note A_, 1
	note __, 1
	octave 3
	note D_, 2
	octave 2
	note A_, 1
	note __, 1
	note A_, 1
	note __, 1
	octave 3
	note E_, 2
	octave 2
	note A_, 1
	note __, 1
	octave 3
	note B_, 2
	octave 2
	note A_, 1
	note __, 1
;Bar9:
	octave 3
	note A_, 2
	octave 2
	note A_, 1
	note __, 1
	note A_, 1
	note __, 1
	octave 3
	note B_, 2
	octave 2
	note A_, 1
	note __, 1
	note A_, 1
	note __, 1
	octave 4
	note C_, 2
	octave 2
	note A_, 1
	note __, 1
;Bar10:
	note A_, 1
	note __, 1
	octave 3
	note B_, 2
	octave 2
	note A_, 1
	note __, 1
	note A_, 1
	note __, 1
	octave 4
	note D_, 2
	octave 2
	note A_, 1
	note __, 1
	octave 3
	note B_, 2
	octave 2
	note A_, 1
	note __, 1
;Bar11:
	octave 4
	note C_, 2
	octave 2
	note A_, 1
	note __, 1
	note A_, 1
	note __, 1
	octave 3
	note B_, 2
	octave 2
	note A_, 1
	note __, 1
	note A_, 1
	note __, 1
	octave 3
	note G_, 2
	octave 2
	note A_, 1
	note __, 1
;Bar12:
	note A_, 1
	note __, 1
	octave 3
	note E_, 2
	octave 2
	note A_, 1
	note __, 1
	note A_, 1
	note __, 1
	octave 3
	note G_, 2
	octave 2
	note A_, 1
	note __, 1
	octave 3
	note B_, 2
	octave 2
	note G_, 1
	note __, 1
;Bar13:
	octave 3
	note A_, 2
	octave 2
	note F_, 1
	note __, 1
	note F_, 1
	note __, 1
	octave 3
	note B_, 2
	octave 2
	note F_, 1
	note __, 1
	note F_, 1
	note __, 1
	octave 4
	note C_, 2
	octave 2
	note F_, 1
	note __, 1
;Bar14:
	note F_, 1
	note __, 1
	octave 3
	note B_, 2
	octave 2
	note F_, 1
	note __, 1
	note F_, 1
	note __, 1
	octave 4
	note D_, 2
	octave 2
	note F_, 1
	note __, 1
	octave 3
	note B_, 2
	octave 2
	note F_, 1
	note __, 1
;Bar15:
	octave 4
	note C_, 2
	octave 2
	note G_, 1
	note __, 1
	note G_, 1
	note __, 1
	octave 3
	note B_, 2
	octave 2
	note G_, 1
	note __, 1
	note G_, 1
	note __, 1
	octave 3
	note G_, 2
	octave 2
	note G_, 1
	note __, 1
;Bar16:
	note G_, 1
	note __, 1
	octave 3
	note D_, 2
	octave 2
	note G_, 1
	note __, 1
	note G_, 1
	note __, 1
	octave 3
	note E_, 2
	octave 2
	note G_, 1
	note __, 1
	octave 3
	note B_, 2
	octave 2
	note G_, 1
	note __, 1
;Bar17:
	octave 3
	note A_, 2
	octave 2
	note A_, 1
	note __, 1
	note A_, 1
	note __, 1
	octave 3
	note B_, 2
	octave 2
	note A_, 1
	note __, 1
	note A_, 1
	note __, 1
	octave 4
	note C_, 2
	octave 2
	note A_, 1
	note __, 1
;Bar18:
	note A_, 1
	note __, 1
	octave 3
	note B_, 2
	octave 2
	note A_, 1
	note __, 1
	note A_, 1
	note __, 1
	octave 4
	note D_, 2
	octave 2
	note A_, 1
	note __, 1
	octave 3
	note B_, 2
	octave 2
	note A_, 1
	note __, 1
;Bar19:
	octave 4
	note C_, 2
	octave 2
	note A_, 1
	note __, 1
	note A_, 1
	note __, 1
	octave 3
	note B_, 2
	octave 2
	note A_, 1
	note __, 1
	note A_, 1
	note __, 1
	octave 3
	note G_, 2
	octave 2
	note A_, 1
	note __, 1
;Bar20:
	note A_, 1
	note __, 1
	octave 3
	note E_, 2
	octave 2
	note A_, 1
	note __, 1
	note A_, 1
	note __, 1
	octave 3
	note G_, 2
	octave 2
	note A_, 1
	note __, 1
	octave 3
	note B_, 2
	octave 2
	note G_, 1
	note __, 1
;Bar21:
	octave 3
	note A_, 2
	octave 2
	note F_, 1
	note __, 1
	note F_, 1
	note __, 1
	octave 3
	note B_, 2
	octave 2
	note F_, 1
	note __, 1
	note F_, 1
	note __, 1
	octave 4
	note C_, 2
	octave 2
	note F_, 1
	note __, 1
;Bar22:
	note F_, 1
	note __, 1
	octave 3
	note B_, 2
	octave 2
	note F_, 1
	note __, 1
	note F_, 1
	note __, 1
	octave 4
	note D_, 2
	octave 2
	note F_, 1
	note __, 1
	octave 3
	note B_, 2
	octave 2
	note F_, 1
	note __, 1
;Bar23:
	octave 4
	note C_, 2
	octave 2
	note G_, 1
	note __, 1
	note G_, 1
	note __, 1
	octave 3
	note B_, 2
	octave 2
	note G_, 1
	note __, 1
	note G_, 1
	note __, 1
	octave 3
	note G_, 2
	octave 2
	note G_, 1
	note __, 1
;Bar24:
	note G_, 1
	note __, 1
	octave 3
	note D_, 2
	octave 2
	note G_, 1
	note __, 1
	note G_, 1
	note __, 1
	octave 3
	note E_, 2
	octave 2
	note G_, 1
	note __, 1
	octave 3
	note B_, 2
	octave 2
	note G_, 1
	note __, 1
;Bar25:
	octave 3
	intensity $f2
	note A_, 2
	note A_, 2
	note __, 12
	intensity $b6
;Bar26:
	note __, 6
	note A_, 1
	octave 3
	note B_, 1
	octave 4
	note C_, 1
	note __, 1
	note D_, 1
	note __, 1
	octave 3
	note B_, 1
	note __, 1
	octave 4
	note C_, 1
	note __, 1
;Bar27:
	octave 3
	intensity $f2
	note A_, 2
	note A_, 2
	note __, 10
	octave 4
	intensity $b6
	note E_, 1
	note __, 1
;Bar28:
	note D_, 1
	note __, 1
	note E_, 1
	note __, 1
	note G_, 1
	note __, 1
	note D_, 1
	note __, 1
	note E_, 1
	note __, 1
	octave 3
	note B_, 1
	note __, 1
	octave 4
	note C_, 1
	note __, 1
	octave 3
	note B_, 1
	note __, 1
;Bar29:
	octave 3
	intensity $f2
	note G_, 2
	note G_, 2
	note __, 10
	octave 3
	intensity $b6
	note A_, 1
	note B_, 1
;Bar30:
	octave 4
	note C_, 1
	note __, 1
	note D_, 1
	note __, 3
	octave 3
	intensity $b6
	note B_, 3
	note __, 1
	intensity $b6
	octave 4
	note C_, 1
	note __, 1
	octave 3
	note B_, 1
	note __, 1
	note G_, 1
	note __, 1
;Bar31:
	octave 3
	intensity $f2
	note A_, 2
	note A_, 2
	note __, 16
	note __, 2
	intensity $b6
;Bar32:
	octave 4
	note E_, 1
	note __, 1
	note D_, 1
	note __, 1
	note C_, 1
	note __, 1
	octave 3
	note B_, 1
	note __, 1
	note G_, 1
	note __, 1
	loopchannel 0, Music_Testimony2001_Ch1_master
	endchannel

; ============================================================================================================
Music_Testimony2001_Ch2:
	stereopanning $ff
	vibrato $a7, $25
	notetype 6, $92
	dutycycle $2
	octave 1

Music_Testimony2001_Ch2_master:
;Bar 1
	callchannel Music_Testimony2001_Ch2_A
;Bar 2
	callchannel Music_Testimony2001_Ch2_A
;Bar3:
	callchannel Music_Testimony2001_Ch2_A
;Bar4:
	callchannel Music_Testimony2001_Ch2_A
;Bar5:
	callchannel Music_Testimony2001_Ch2_A
;Bar6:
	callchannel Music_Testimony2001_Ch2_A
;Bar7:
	callchannel Music_Testimony2001_Ch2_A
;Bar8:
	callchannel Music_Testimony2001_Ch2_A
;Bar9:
	callchannel Music_Testimony2001_Ch2_A
;Bar10:
	callchannel Music_Testimony2001_Ch2_A
;Bar11:
	callchannel Music_Testimony2001_Ch2_A
;Bar12:
	callchannel Music_Testimony2001_Ch2_AG
	note G_, 1
	note __, 1
	octave 2
	note G_, 1
	note __, 1
	octave 1
;Bar13:
	callchannel Music_Testimony2001_Ch2_F
;Bar14:
	callchannel Music_Testimony2001_Ch2_F
;Bar15:
	callchannel Music_Testimony2001_Ch2_G
;Bar16:
	callchannel Music_Testimony2001_Ch2_G
;Bar17:
	callchannel Music_Testimony2001_Ch2_A
;Bar18:
	callchannel Music_Testimony2001_Ch2_A
;Bar19:
	callchannel Music_Testimony2001_Ch2_A
;Bar20:
	callchannel Music_Testimony2001_Ch2_AG
	note G_, 1
	note __, 1
	octave 2
	note G_, 1
	note __, 1
	octave 1
;Bar21:
	callchannel Music_Testimony2001_Ch2_F
;Bar22:
	callchannel Music_Testimony2001_Ch2_F
;Bar23:
	callchannel Music_Testimony2001_Ch2_G
;Bar24:
	callchannel Music_Testimony2001_Ch2_G
;Bar25:
	callchannel Music_Testimony2001_Ch2_A
;Bar26:
	callchannel Music_Testimony2001_Ch2_A1
	callchannel Music_Testimony2001_Ch2_G1
;Bar27:
	callchannel Music_Testimony2001_Ch2_F
;Bar28:
	callchannel Music_Testimony2001_Ch2_G
;Bar29:
	callchannel Music_Testimony2001_Ch2_E
;Bar30:
	callchannel Music_Testimony2001_Ch2_E
;Bar31:
	callchannel Music_Testimony2001_Ch2_F
;Bar32:
	callchannel Music_Testimony2001_Ch2_F
	loopchannel 0, Music_Testimony2001_Ch2_master
	endchannel

Music_Testimony2001_Ch2_A
	note A_, 1
	note __, 1

	loopchannel 16, Music_Testimony2001_Ch2_A
	endchannel

Music_Testimony2001_Ch2_AG
	note A_, 1
	note __, 1

	loopchannel 14, Music_Testimony2001_Ch2_AG
	endchannel

Music_Testimony2001_Ch2_F
	note F_, 1
	note __, 1

	loopchannel 16, Music_Testimony2001_Ch2_F
	endchannel

Music_Testimony2001_Ch2_G
	note G_, 1
	note __, 1

	loopchannel 16, Music_Testimony2001_Ch2_G
	endchannel

Music_Testimony2001_Ch2_A1
	note A_, 1
	note __, 1

	loopchannel 8, Music_Testimony2001_Ch2_A1
	endchannel

Music_Testimony2001_Ch2_G1
	note G_, 1
	note __, 1

	loopchannel 8, Music_Testimony2001_Ch2_G1
	endchannel

Music_Testimony2001_Ch2_E
	note E_, 1
	note __, 1

	loopchannel 16, Music_Testimony2001_Ch2_E
	endchannel


; ============================================================================================================
Music_Testimony2001_Ch3:
	stereopanning $ff
	;vibrato $16, $14

Music_Testimony2001_Ch3_master:
	wavetype 1, 12, $15
;Bar1:
	note __, 16
;Bar2:
	note __, 16
;Bar3:
	note __, 16
;Bar4:
	note __, 16
;Bar5:
	note __, 16
;Bar6:
	note __, 16
;Bar7:
	note __, 16
;Bar8:
	note __, 16
;Bar9:
	octave 4
	intensity $35
	note E_, 1
	intensity $25
	note E_, 1
	intensity $15
	note E_, 14
;Bar10:
	intensity $35
	note B_, 1
	intensity $25
	note B_, 1
	intensity $15
	note B_, 14
;Bar11:
	octave 5
	intensity $35
	note C_, 1
	intensity $25
	note C_, 1
	intensity $15
	note C_, 14
;Bar12:
	octave 4
	intensity $35
	note B_, 1
	intensity $25
	note B_, 1
	intensity $15
	note B_, 14
;Bar13:
	intensity $35
	note E_, 1
	intensity $25
	note E_, 1
	intensity $15
	note E_, 14
;Bar14:
	intensity $35
	note A_, 1
	intensity $25
	note A_, 1
	intensity $15
	note A_, 14
;Bar15:
	octave 5
	intensity $35
	note C_, 1
	intensity $25
	note C_, 1
	intensity $15
	note C_, 14
;Bar16:
	octave 4
	intensity $35
	note B_, 1
	intensity $25
	note B_, 1
	intensity $15
	note B_, 14
;Bar17:
	intensity $35
	note A_, 1
	intensity $25
	note A_, 1
	intensity $15
	note A_, 14
;Bar18:
	octave 5
	intensity $35
	note C_, 1
	intensity $25
	note C_, 1
	intensity $15
	note C_, 14
;Bar19:
	octave 4
	intensity $35
	note B_, 1
	intensity $25
	note B_, 1
	intensity $15
	note B_, 14
;Bar20:
	intensity $35
	note G_, 1
	intensity $25
	note G_, 1
	intensity $15
	note G_, 14
;Bar21:
	intensity $35
	note A_, 1
	intensity $25
	note A_, 1
	intensity $15
	note A_, 14
;Bar22:
	octave 5
	intensity $35
	note C_, 1
	intensity $25
	note C_, 1
	intensity $15
	note C_, 14
;Bar23:
	octave 4
	intensity $35
	note B_, 1
	intensity $25
	note B_, 1
	intensity $15
	note B_, 14
;Bar24:
	intensity $35
	note G_, 1
	intensity $25
	note G_, 1
	intensity $15
	note G_, 14
;Bar25:
	intensity $24
	octave 2
	note A_, 2
	note A_, 2
	note __, 12
;Bar26:
	octave 4
	note __, 8
	intensity $35
	note B_, 1
	intensity $25
	note B_, 1
	intensity $15
	note B_, 6
;Bar27:
	intensity $24
	octave 2
	note F_, 2
	note F_, 2
	note __, 12
	octave 4
;Bar28:
	intensity $35
	note B_, 1
	intensity $25
	note B_, 1
	intensity $15
	note B_, 6
	intensity $35
	note G_, 1
	intensity $25
	note G_, 1
	intensity $15
	note G_, 6
;Bar29:
	intensity $24
	octave 2
	note E_, 2
	note E_, 2
	note __, 12
	octave 4
;Bar30:
	note __, 8
	intensity $35
	note G_, 1
	intensity $25
	note G_, 1
	intensity $15
	note G_, 6
;Bar31
	intensity $24
	octave 2
	note F_, 2
	note F_, 2
	note __, 12
	octave 4
;Bar32
	note __, 16
	loopchannel 0, Music_Testimony2001_Ch3_master
	endchannel

; ============================================================================================================
Music_Testimony2001_Ch4:
	notetype 12
	stereopanning $ff
	togglenoise $1

Music_Testimony2001_Ch4_master:
;Bar1:
	callchannel Music_Testimony2001_Ch4_C4_4
;Bar2:
	callchannel Music_Testimony2001_Ch4_C4_4
;Bar3:
	callchannel Music_Testimony2001_Ch4_C4_4
;Bar4:
	callchannel Music_Testimony2001_Ch4_C44422
;Bar5:
	callchannel Music_Testimony2001_Ch4_C4_4
;Bar6:
	callchannel Music_Testimony2001_Ch4_C4_4
;Bar7:
	callchannel Music_Testimony2001_Ch4_C4_4
;Bar8:
	note E_, 4
	note E_, 4
	note E_, 2
	note E_, 2
	note E_, 2
	;stereopanning $ff
	note D_, 2
	;stereopanning $f0
;Bar9:
	callchannel Music_Testimony2001_Ch4_C4_4
;Bar10:
	callchannel Music_Testimony2001_Ch4_C4442D2
;Bar11:
	callchannel Music_Testimony2001_Ch4_C4_4
;Bar12:
	callchannel Music_Testimony2001_Ch4_C442D411
;Bar13:
	callchannel Music_Testimony2001_Ch4_C4_4
;Bar14:
	callchannel Music_Testimony2001_Ch4_C4442D2
;Bar15:
	callchannel Music_Testimony2001_Ch4_C4_4
;Bar16:
	callchannel Music_Testimony2001_Ch4_C442D411
;Bar17:
	callchannel Music_Testimony2001_Ch4_C4D4C4D4
;Bar18:
	callchannel Music_Testimony2001_Ch4_C4D4C4D4
;Bar19:
	callchannel Music_Testimony2001_Ch4_C4D4C4D4
;Bar20:
	note E_, 4
	;stereopanning $ff
	note D_, 4
	;stereopanning $f0
	note E_, 2
	;stereopanning $ff
	note D_, 4 
	note D_, 1
	note D_, 1
	;stereopanning $f0
;Bar21:
	callchannel Music_Testimony2001_Ch4_C4D4C4D4
;Bar22:
	note E_, 4
	;stereopanning $ff
	note D_, 4
	;stereopanning $f0
	note E_, 4
	;stereopanning $ff
	note D_, 2
	;stereopanning $f0
	note E_, 2
;Bar23:
	callchannel Music_Testimony2001_Ch4_C4D4C4D4
;Bar24:
	note E_, 4
	;stereopanning $ff
	note D_, 3
	note D_, 1
	;stereopanning $f0
	note E_, 2
	;stereopanning $ff
	note D_, 4
	note D_, 1
	note D_, 1
	;stereopanning $f0
;Bar25: 
	note E_, 2
	note E_, 2
	;stereopanning $ff
	note D_, 4
	note __, 4
	note D_, 2
	;stereopanning $f0
	note E_, 1
	note E_, 1
;Bar26:
	note E_, 4
	note D_, 4
	note E_, 4
	note D_, 2
	note E_, 1
	note D_, 1
;Bar27:
	note E_, 2
	note E_, 2
	note D_, 4
	note __, 4
	note D_, 2
	note E_, 1
	note E_, 1
;Bar28:
	note E_, 4
	note D_, 4
	note E_, 2
	note E_, 2
	note D_, 4
;Bar29:
	note E_, 2
	note E_, 2
	note D_, 4
	note __, 4
	note D_, 2
	note E_, 1
	note E_, 1
;Bar30:
	note E_, 4
	note D_, 4
	note E_, 4
	note D_, 2
	note D_, 1
	note D_, 1
;Bar31:
	note E_, 2
	note E_, 2
	note D_, 4
	note E_, 4
	note D_, 4
;Bar32:
	note E_, 1
	note C#, 3
	note D_, 3
	note C#, 1
	note E_, 2
	note D_, 2
	note D_, 2
	note E_, 2

	loopchannel 0, Music_Testimony2001_Ch4_master
	endchannel

Music_Testimony2001_Ch4_C4_4:
	note E_, 4
	loopchannel 4, Music_Testimony2001_Ch4_C4_4
	endchannel

Music_Testimony2001_Ch4_C4442D2:
	note E_, 4
	note E_, 4
	note E_, 4
	note E_, 2
	note D_, 2
	endchannel

Music_Testimony2001_Ch4_C44422:
	note E_, 4
	note E_, 4
	note E_, 4
	note E_, 2
	note E_, 2
	endchannel

Music_Testimony2001_Ch4_C442D411:
	note E_, 4
	note E_, 4
	note E_, 2
	note D_, 4
	note D_, 1
	note D_, 1
	endchannel

Music_Testimony2001_Ch4_C4D4C4D4:
	note E_, 4
	note D_, 4
	note E_, 4
	note D_, 4
	endchannel
