;Coverted using MIDI2ASM
;Code by TriteHexagon
;Version 4.0 (17-Jun-2020)
;Visit github.com/TriteHexagon/Midi2ASM-Converter for up-to-date versions.

; ============================================================================================================

Music_Placeholder:
	musicheader 4, 1, Music_Placeholder_Ch1
	musicheader 1, 2, Music_Placeholder_Ch2
	musicheader 1, 3, Music_Placeholder_Ch3
	musicheader 1, 4, Music_Placeholder_Ch4

Music_Placeholder_Ch1:
	volume $77
	dutycycle $2
	notetype 12, $a7
	tempo 94
;Bar 1
	;note __, 0 | WARNING: Rounded down to 0
	intensity $97
	octave 3
	note G_, 5
	note __, 1
	note G_, 6
	note F#, 2
	note __, 2
;Bar 2
	note F#, 2
	note __, 2
	note F#, 2
	note __, 2
	note G_, 5
	note __, 1
	note G_, 6
;Bar 3
	note F#, 2
	note __, 2
	note F#, 2
	note __, 2
	note F#, 2
	note __, 2
;Bar 4
	note G_, 5
	note __, 1
	note G_, 6
	note F#, 2
	note __, 2
;Bar 5
	note F#, 2
	note __, 2
	note F#, 2
	note __, 2
	note F_, 5
	note __, 1
	note F_, 6
;Bar 6
	note E_, 2
	note __, 2
	note E_, 2
	note __, 2
	note E_, 2
	note __, 2
;Bar 7
	note G_, 5
	note __, 1
	note G_, 6
	note F#, 2
	note __, 2
;Bar 8
	note F#, 2
	note __, 2
	note F#, 2
	note __, 2
	note G_, 5
	note __, 1
	note G_, 6
;Bar 9
	note F#, 2
	note __, 2
	note F#, 2
	note __, 2
	note F#, 2
	note __, 2
;Bar 10
	note G_, 5
	note __, 1
	note G_, 6
	note F#, 2
	note __, 2
;Bar 11
	note F#, 2
	note __, 2
	note F#, 2
	note __, 2
	note F_, 5
	note __, 1
	note F_, 6
;Bar 12
	note E_, 2
	note __, 2
	note E_, 2
	note __, 2
	note E_, 2
	note __, 2
;Bar 13
	note G_, 5
	note __, 1
	note G_, 6
	note F#, 2
	note __, 2
;Bar 14
	note F#, 2
	note __, 2
	note F#, 2
	note __, 2
	note G_, 5
	note __, 1
	note G_, 6
;Bar 15
	note F#, 2
	note __, 2
	note F#, 2
	note __, 2
	note F#, 2
	note __, 2
;Bar 16
	note G_, 5
	note __, 1
	note G_, 6
	note F#, 2
	note __, 2
;Bar 17
	note F#, 2
	note __, 2
	note F#, 2
	note __, 2
	note F_, 5
	note __, 1
	note F_, 6
;Bar 18
	note E_, 2
	note __, 2
	note E_, 2
	note __, 2
	note E_, 2
	note __, 2
;Bar 19
	note G_, 5
	note __, 1
	note G_, 6
	note F#, 2
	note __, 2
;Bar 20
	note F#, 2
	note __, 2
	note F#, 2
	note __, 2
	note G_, 5
	note __, 1
	note G_, 6
;Bar 21
	note F#, 2
	note __, 2
	note F#, 2
	note __, 2
	note F#, 2
	note __, 2
;Bar 22
	note G_, 5
	note __, 1
	note G_, 6
	note F#, 2
	note __, 2
;Bar 23
	note F#, 2
	note __, 2
	note F#, 2
	note __, 2
	note F_, 5
	note __, 1
	note F_, 6
;Bar 24
	note E_, 2
	note __, 2
	note E_, 2
	note __, 2
	note E_, 2
	note __, 2
;Bar 25
	note F#, 5
	note __, 1
	note F#, 5
	note __, 1
	note E_, 8
;Bar 26
	note D_, 5
	note __, 1
	note D_, 5
	note __, 1
;Bar 27
	note D_, 8
	note D_, 5
	note __, 1
	note D_, 5
;Bar 28
	note __, 1
	note D_, 8
	note D_, 5
;Bar 29
	note __, 1
	note D_, 5
	note __, 1
	note C#, 3
	note __, 1
	note D_, 3
	note __, 1
;Bar 30
	note E_, 3
	note __, 1
	note F#, 5
	note __, 1
	note F#, 5
	note __, 1
;Bar 31
	note E_, 8
	note D_, 5
	note __, 1
	note D_, 5
;Bar 32
	note __, 1
	note D_, 8
	note D_, 5
;Bar 33
	note __, 1
	note D_, 5
	note __, 1
	note D_, 11
;Bar 34
	note __, 1
	note D_, 11
	note __, 1
;Bar 35
	note C#, 12
	note C#, 16
	note C#, 7
;Bar 37
	note __, 16
	note __, 9
;Bar 38
	note G_, 5
;Bar 39
	note __, 1
	note G_, 6
	note F#, 2
	note __, 2
	note F#, 2
	note __, 2
;Bar 40
	note F#, 2
	note __, 2
	note G_, 5
	note __, 1
	note G_, 6
;Bar 41
	note F#, 2
	note __, 2
	note F#, 2
	note __, 2
	note F#, 2
	note __, 2
	note G_, 5
;Bar 42
	note __, 1
	note G_, 6
	note F#, 2
	note __, 2
	note F#, 2
	note __, 2
;Bar 43
	note F#, 2
	note __, 2
	note F_, 5
	note __, 1
	note F_, 6
;Bar 44
	note E_, 2
	note __, 2
	note E_, 2
	note __, 2
	note E_, 2
	note __, 2
	note G_, 5
;Bar 45
	note __, 1
	note G_, 6
	note F#, 2
	note __, 2
	note F#, 2
	note __, 2
;Bar 46
	note F#, 2
	note __, 2
	note G_, 5
	note __, 1
	note G_, 6
;Bar 47
	note G_, 1
	endchannel

; ============================================================================================================

Music_Placeholder_Ch2:
	dutycycle $1
	notetype 12, $a7
;Bar 1
	intensity $a7
	note __, 16
	note __, 16
	note __, 16
	note __, 16
	note __, 16
	note __, 16
;Bar 7
	intensity $c7
	octave 4
	note D_, 4
	note __, 2 ; Auto-Sync says: Rounded down!
	note D_, 1
	intensity $a7
	;note E_, 0 | WARNING: Rounded down to 0
	intensity $c7
	note D_, 1
	intensity $b7
	note C_, 2
	intensity $c7
	octave 3
	note B_, 2
	octave 4
	note D_, 4 ; Auto-Sync says: Rounded down!
;Bar 8
	note G_, 1
	note __, 3
	note A_, 1
	note __, 3
	note B_, 4
	note __, 2 ; Auto-Sync says: Rounded down!
	note B_, 1
	intensity $a7
	octave 5
	;note C_, 0 | WARNING: Rounded down to 0
	intensity $c7
	octave 4
	note B_, 1
;Bar 9
	note A_, 2
	note B_, 2
	octave 5
	note C_, 4
	octave 4
	note B_, 1 ; Auto-Sync says: Rounded up!
	note __, 3
	note A_, 1
	note __, 3
;Bar 10
	intensity $d7
	octave 5
	note D_, 4 ; Auto-Sync says: Rounded up!
	note __, 2
	note D_, 1
	intensity $c7
	;note E_, 0 | WARNING: Rounded down to 0
	intensity $d7
	note D_, 1
	intensity $c7
	note C_, 2 ; Auto-Sync says: Rounded up!
	octave 4
	note B_, 2
	intensity $d7
	octave 5
	note C_, 1
	note __, 3
;Bar 11
	intensity $c7
	octave 4
	note B_, 1
	note __, 3 ; Auto-Sync says: Rounded up!
	note A_, 1
	note __, 3
	intensity $d7
	note F_, 5
	note __, 1
	intensity $c7
	note F_, 2
;Bar 12
	note G_, 2 ; Auto-Sync says: Rounded down!
	note A_, 1
	note __, 1
	note G_, 11
	intensity $a7
	octave 2
	note B_, 1
;Bar 13
	intensity $97
	octave 3
	;note C_, 0 | WARNING: Rounded down to 0
	intensity $b7
	note D_, 8
	intensity $a7
	note G_, 4
	intensity $b7
	note A_, 6
;Bar 14
	intensity $a7
	note D_, 2
	intensity $b7
	note A_, 3
	intensity $a7
	note A_, 1 ; Auto-Sync says: Rounded down!
	intensity $97
	;note A#, 0 | WARNING: Rounded down to 0
	intensity $b7
	;note B_, 0 | WARNING: Rounded down to 0
	intensity $a7
	note B_, 8
;Bar 15
	intensity $b7
	note D_, 4
	octave 4
	note C_, 6
	octave 3
	note B_, 2
	note A_, 3
	intensity $a7
	note B_, 1
;Bar 16
	intensity $97
	octave 4
	;note C_, 0 | WARNING: Rounded down to 0
	intensity $b7
	note D_, 7
	note __, 1 ; Auto-Sync says: Rounded down!
	note D_, 4
	note C_, 4
;Bar 17
	intensity $a7
	octave 3
	note B_, 4
	intensity $b7
	note A_, 3
	intensity $a7
	note D_, 1
	intensity $97
	;note E_, 0 | WARNING: Rounded down to 0
	intensity $b7
	note F_, 6
	intensity $a7
	note G_, 2
;Bar 18
	intensity $b7
	note A_, 4
	note G_, 12
;Bar 19
	intensity $87
	;note G_, 0 | WARNING: Rounded down to 0
	intensity $c7
	octave 4
	note D_, 4
	note __, 2
	intensity $77
	octave 3
	;note G_, 0 | WARNING: Rounded down to 0
	intensity $c7
	octave 4
	note D_, 1
	intensity $67
	octave 3
	;note A_, 0 | WARNING: Rounded down to 0
	intensity $a7
	octave 4
	;note E_, 0 | WARNING: Rounded down to 0
	intensity $77
	octave 3
	;note G_, 0 | WARNING: Rounded down to 0
	intensity $c7
	octave 4
	note D_, 1
	intensity $77
	octave 3
	;note G_, 0 | WARNING: Rounded down to 0
	intensity $b7
	octave 4
	note C_, 2
	intensity $77
	octave 3
	;note F#, 0 | WARNING: Rounded down to 0
	intensity $c7
	note B_, 2
	intensity $87
	;note F#, 0 | WARNING: Rounded down to 0
	intensity $c7
	octave 4
	note D_, 4
;Bar 20
	intensity $87
	;note D_, 0 | WARNING: Rounded down to 0
	intensity $c7
	note G_, 1
	note __, 3
	intensity $77
	;note D_, 0 | WARNING: Rounded down to 0
	intensity $c7
	note A_, 1
	note __, 3
	intensity $87
	;note D_, 0 | WARNING: Rounded down to 0
	intensity $c7
	note B_, 4 ; Auto-Sync says: Rounded up!
	note __, 2
	intensity $77
	;note E_, 0 | WARNING: Rounded down to 0
	intensity $c7
	note B_, 1
	intensity $67
	;note F_, 0 | WARNING: Rounded down to 0
	intensity $a7
	octave 5
	;note C_, 0 | WARNING: Rounded down to 0
	intensity $77
	octave 4
	;note E_, 0 | WARNING: Rounded down to 0
	intensity $c7
	note B_, 1
;Bar 21
	intensity $87
	;note D_, 0 | WARNING: Rounded down to 0
	intensity $c7
	note A_, 2
	intensity $77
	;note D_, 0 | WARNING: Rounded down to 0
	intensity $c7
	note B_, 2
	intensity $87
	;note F#, 0 | WARNING: Rounded down to 0
	intensity $c7
	octave 5
	note C_, 4
	intensity $77
	octave 4
	;note F#, 0 | WARNING: Rounded down to 0
	intensity $c7
	note B_, 1
	note __, 3
	intensity $87
	;note D_, 0 | WARNING: Rounded down to 0
	intensity $c7
	note A_, 1
	note __, 3 ; Auto-Sync says: Rounded up!
;Bar 22
	intensity $87
	;note G_, 0 | WARNING: Rounded down to 0
	intensity $d7
	octave 5
	note D_, 4
	note __, 2
	intensity $87
	octave 4
	;note G_, 0 | WARNING: Rounded down to 0
	intensity $d7
	octave 5
	note D_, 1
	intensity $77
	octave 4
	;note A_, 0 | WARNING: Rounded down to 0
	intensity $c7
	octave 5
	;note E_, 0 | WARNING: Rounded down to 0
	intensity $87
	octave 4
	;note G_, 0 | WARNING: Rounded down to 0
	intensity $d7
	octave 5
	note D_, 1
	intensity $77
	octave 4
	;note F#, 0 | WARNING: Rounded down to 0
	intensity $c7
	octave 5
	note C_, 2
	intensity $87
	octave 4
	;note F#, 0 | WARNING: Rounded down to 0
	intensity $c7
	note B_, 2 ; Auto-Sync says: Rounded down!
	intensity $87
	;note F#, 0 | WARNING: Rounded down to 0
	intensity $d7
	octave 5
	note C_, 1
	note __, 3
;Bar 23
	intensity $77
	octave 4
	;note E_, 0 | WARNING: Rounded down to 0
	intensity $c7
	note B_, 1
	note __, 3 ; Auto-Sync says: Rounded down!
	intensity $87
	;note D_, 0 | WARNING: Rounded down to 0
	intensity $c7
	note A_, 1
	note __, 3
	intensity $87
	;note C_, 0 | WARNING: Rounded down to 0
	intensity $d7
	note F_, 5
	note __, 1
	intensity $77
	;note C_, 0 | WARNING: Rounded down to 0
	intensity $c7
	note F_, 2
;Bar 24
	intensity $87
	;note C_, 0 | WARNING: Rounded down to 0
	intensity $d7
	note G_, 2
	intensity $77
	;note D_, 0 | WARNING: Rounded down to 0
	intensity $c7
	note A_, 1
	note __, 1
	intensity $87
	;note C_, 0 | WARNING: Rounded down to 0
	intensity $c7
	note G_, 10
	intensity $a7
	octave 2
	note B_, 1
	octave 3
	;note C#, 0 | WARNING: Rounded down to 0
	intensity $b7
	note D_, 1
;Bar 25
	;note E_, 0 | WARNING: Rounded down to 0
	intensity $c7
	note F#, 12
	note E_, 4
;Bar 26
	intensity $b7
	note A_, 1
	note __, 2
	octave 2
	note B_, 1
	intensity $a7
	octave 3
	;note C#, 0 | WARNING: Rounded down to 0
	intensity $c7
	note D_, 16
;Bar 27
	octave 2
	note B_, 2
	intensity $b7
	octave 3
	note C#, 2
	intensity $c7
	note D_, 12
;Bar 28
	octave 2
	note B_, 4
	octave 3
	note E_, 1
	note __, 3
	note D_, 10
;Bar 29
	note E_, 1
	intensity $b7
	note D_, 1
	intensity $c7
	note C#, 4
	note D_, 4
;Bar 30
	note E_, 4
	note F#, 12
;Bar 31
	note E_, 4
	note A_, 1
	note __, 3
	note D_, 16
;Bar 32
	note B_, 2
	octave 4
	note C#, 2
	intensity $d7
	note D_, 12
;Bar 33
	intensity $c7
	octave 3
	note B_, 6
	intensity $97
	note B_, 1
	intensity $a7
	octave 4
	;note C_, 0 | WARNING: Rounded down to 0
	intensity $b7
	note C#, 1
;Bar 34
	;note D_, 0 | WARNING: Rounded down to 0
	intensity $c7
	note E_, 4
	note D_, 12
;Bar 35
	note C#, 12
	note C#, 16
	note C#, 8
;Bar 37
	octave 3
	note B_, 16
	note B_, 8
;Bar 38
	note B_, 2
	intensity $b7
	note A_, 2
;Bar 39
	intensity $c7
	note G_, 2
	intensity $b7
	note A_, 2
	intensity $c7
	note B_, 2
	octave 4
	note C_, 2
	note D_, 2
	note E_, 2
	note F#, 2
	note G_, 2
;Bar 40
	intensity $d7
	note A_, 2
	intensity $c7
	note D_, 2
	note G_, 4
	note F#, 2
	note G_, 2
	note F#, 2
	note E_, 2
;Bar 41
	note D_, 2
	note E_, 2
	note D_, 2
	note C_, 2
	octave 3
	note B_, 2
	note A_, 2
	note B_, 4
;Bar 42
	note A_, 1
	note B_, 2
	note A_, 1
	note G_, 2
	note A_, 2
	note B_, 2
	octave 4
	note C_, 2
	note D_, 2
	note E_, 2
;Bar 43
	note F#, 2
	note D_, 2
	note F_, 4
	note E_, 1
	note F_, 2
	note E_, 1
	note C_, 2
	note F_, 2
;Bar 44
	note E_, 2
	note G_, 2
	note F#, 2
	note E_, 2
	note D_, 2
	note C_, 2
	octave 3
	;note B_, 0 | WARNING: Rounded down to 0
	octave 4
	note D_, 4
;Bar 45
	note __, 2
	note D_, 1
	intensity $a7
	;note E_, 0 | WARNING: Rounded down to 0
	intensity $c7
	note D_, 1
	intensity $b7
	note C_, 2
	intensity $c7
	octave 3
	note B_, 2
	octave 4
	note D_, 4
	note G_, 1
	note __, 3
;Bar 46
	note A_, 1
	note __, 3
	note B_, 4
	note __, 2
	note B_, 1
	intensity $a7
	octave 5
	;note C_, 0 | WARNING: Rounded down to 0
	intensity $c7
	octave 4
	note B_, 1
	note A_, 2
	note B_, 2
;Bar 47
	note B_, 1
	endchannel

; ============================================================================================================

Music_Placeholder_Ch3:
	notetype 12, $13
;Bar 1
	octave 4
	callchannel Music_Placeholder_Ch3_Bar1
;Bar 2
	note D_, 1
	note __, 3
	note A_, 1
	note __, 3
	note B_, 2
	note B_, 1
	note __, 3
	note G_, 2
;Bar 3
	note B_, 1
	note __, 3
	octave 5
	note C_, 1
	note __, 3
	octave 4
	note B_, 1
	note __, 3
	note A_, 1
	note __, 3
;Bar 4
	note B_, 2
	note B_, 1
	note __, 3
	note D_, 2
	note B_, 1
	note __, 3
	note A_, 1
	note __, 3
;Bar 5
	note D_, 1
	note __, 3
	note A_, 1
	note __, 3
	note F_, 2
	note F_, 1
	note __, 3
	note A_, 2
;Bar 6
	note F_, 1
	note __, 3
	note E_, 1
	note __, 3
	note F_, 1
	note __, 3
	note E_, 1
	note __, 3
;Bar 7
	callchannel Music_Placeholder_Ch3_Bar1
;Bar 8
	note D_, 1
	note __, 3
	note A_, 1
	note __, 3
	note B_, 2
	note B_, 1
	note __, 3
	note D_, 2
;Bar 9
	note G_, 1
	note __, 3
	note A_, 1
	note __, 3
	note F#, 1
	note __, 3
	note A_, 1
	note __, 3
;Bar 10
	note B_, 2
	note B_, 1
	note __, 3
	note G_, 2
	note B_, 1
	note __, 3
	octave 5
	note C_, 1
	note __, 3
;Bar 11
	octave 4
	note B_, 1
	note __, 3
	note A_, 1
	note __, 3
	note F_, 2
	note F_, 1
	note __, 3
	note A_, 2
;Bar 12
	note F_, 1
	note __, 3
	note G_, 1
	note __, 3
	note F_, 1
	note __, 3
	note E_, 1
	note __, 3
;Bar 13
	callchannel Music_Placeholder_Ch3_Bar1
;Bar 14
	note D_, 1
	note __, 3
	note A_, 1
	note __, 3
	note D_, 2
	note B_, 1
	note __, 3
	note D_, 2
;Bar 15
	note G_, 1
	note __, 3
	note A_, 1
	note __, 3
	note F#, 1
	note __, 3
	note A_, 1
	note __, 3
;Bar 16
	callchannel Music_Placeholder_Ch3_Bar1
;Bar 17
	note A_, 1
	note __, 3
	note A_, 1
	note __, 3
	note F_, 2
	note F_, 1
	note __, 3
	note C_, 2
;Bar 18
	note F_, 1
	note __, 3
	note E_, 1
	note __, 3
	note F_, 1
	note __, 3
	note E_, 1
	note __, 3
;Bar 19
	callchannel Music_Placeholder_Ch3_Bar1
;Bar 20
	note D_, 1
	note __, 3
	note A_, 1
	note __, 3
	note B_, 2
	note B_, 1
	note __, 3
	note D_, 2
;Bar 21
	note G_, 1
	note __, 3
	note A_, 1
	note __, 3
	note F#, 1
	note __, 3
	note A_, 1
	note __, 3
;Bar 22
	note B_, 2
	note B_, 1
	note __, 3
	;note D_, 0 | WARNING: Rounded down to 0
	note G_, 2
	note B_, 1
	note __, 3
	octave 5
	note C_, 1
	note __, 3
;Bar 23
	octave 4
	note B_, 1
	note __, 3
	note A_, 1
	note __, 3
	note F_, 2
	note F_, 1
	note __, 3
	note F_, 2
;Bar 24
	note G_, 2
	note A_, 2
	note G_, 1
	note __, 3
	note F_, 1
	note __, 3
	note E_, 1
	note __, 3
;Bar 25
	note B_, 12
	note A_, 8
;Bar 26
	note G_, 12
;Bar 27
	note F#, 8
	note G_, 12
;Bar 28
	note F#, 8
	note G_, 12
;Bar 29
	note A_, 8
;Bar 30
	note A#, 4
	note B_, 12
;Bar 31
	note A_, 8
	note G_, 12
;Bar 32
	note F#, 8
	note G_, 12
;Bar 33
	note B_, 12
;Bar 34
	note A_, 12
;Bar 35
	note E_, 12
	note F#, 16
	note F#, 8
;Bar 37
	note B_, 16
	note B_, 8
;Bar 38
	note G_, 2
	note G_, 1
	note __, 3
;Bar 39
	note D_, 2
	note G_, 1
	note __, 3
	note A_, 1
	note __, 3
	note D_, 1
	note __, 3
;Bar 40
	note A_, 1
	note __, 3
	note B_, 2
	note B_, 1
	note __, 3
	note G_, 2
	note B_, 1
	note __, 3
;Bar 41
	octave 5
	note C_, 1
	note __, 3
	octave 4
	note B_, 1
	note __, 3
	note A_, 1
	note __, 3
	note B_, 2
	note B_, 1
	note __, 3
;Bar 42
	note D_, 2
	note B_, 1
	note __, 3
	note A_, 1
	note __, 3
	note D_, 1
	note __, 3
;Bar 43
	;note D_, 0 | WARNING: Rounded down to 0
	note A_, 1
	note __, 3
	note F_, 2
	note F_, 1
	note __, 3
	note A_, 2
	note F_, 1
	note __, 3
;Bar 44
	note E_, 1
	note __, 3
	note F_, 1
	note __, 3
	note E_, 1
	note __, 3
	note G_, 2
	note G_, 1
	note __, 3
;Bar 45
	note D_, 2
	note G_, 1
	note __, 3
	note A_, 1
	note __, 3
	note D_, 1
	note __, 3
;Bar 46
	note A_, 1
	note __, 3
	note B_, 2
	note B_, 1
	note __, 3
	note D_, 2
	note G_, 1
	note G_, 4
	endchannel

Music_Placeholder_Ch3_Bar1:
	note G_, 2;
	note G_, 1
	note __, 3
	note D_, 2
	note G_, 1
	note __, 3
	note A_, 1
	note __, 3
	endchannel

; ============================================================================================================

Music_Placeholder_Ch4:
	togglenoise 1
	notetype 12
;Bar 1
	callchannel Music_Placeholder_Ch4_Bar1
;Bar 2
	callchannel Music_Placeholder_Ch4_Bar1
;Bar 3
	callchannel Music_Placeholder_Ch4_Bar3
;Bar 4
	callchannel Music_Placeholder_Ch4_Bar1
;Bar 5
	callchannel Music_Placeholder_Ch4_Bar1
;Bar 6
	callchannel Music_Placeholder_Ch4_Bar3
;Bar 7
	callchannel Music_Placeholder_Ch4_Bar7
;Bar 8
	callchannel Music_Placeholder_Ch4_Bar8
;Bar 9
	callchannel Music_Placeholder_Ch4_Bar9
;Bar 10
	callchannel Music_Placeholder_Ch4_Bar7
;Bar 11
	callchannel Music_Placeholder_Ch4_Bar8
;Bar 12
	callchannel Music_Placeholder_Ch4_Bar9
;Bar 13
	callchannel Music_Placeholder_Ch4_Bar13
;Bar 14
	callchannel Music_Placeholder_Ch4_Bar14
;Bar 15
	note G_, 2
	note G_, 2
	note C_, 4
	note D#, 4
	note D#, 2
	note C_, 2
;Bar 16
	callchannel Music_Placeholder_Ch4_Bar16
;Bar 17
	callchannel Music_Placeholder_Ch4_Bar17
;Bar 18
	note G_, 2
	note G_, 2
	note G_, 4
	note D_, 4
	note D_, 2
	note C_, 2
;Bar 19
	callchannel Music_Placeholder_Ch4_Bar13
;Bar 20
	callchannel Music_Placeholder_Ch4_Bar14
;Bar 21
	note G_, 2
	note G_, 2
	note C_, 4
	note D#, 4
	note D_, 2
	note C_, 2
;Bar 22
	callchannel Music_Placeholder_Ch4_Bar16
;Bar 23
	callchannel Music_Placeholder_Ch4_Bar17
;Bar 24
	note G_, 2
	note G_, 2
	note G_, 4
	note D_, 4
	note D_, 2
	note C_, 1
	note C_, 1
;Bar 25
	note A#, 6
	note D#, 2
	note G_, 2
	note G_, 2
	note D#, 4
;Bar 26
	note D#, 4
	note D#, 2
	note C_, 4
	note D#, 2
	note G_, 4
;Bar 27
	note D#, 4
	note D#, 2
	note C_, 2
	note D#, 2
	note C_, 4
	note D#, 2
;Bar 28
	note G_, 4
	note D#, 4
	note D#, 4
	note D#, 2
	note C_, 4
;Bar 29
	callchannel Music_Placeholder_Ch4_Bar29
;Bar 30
	note D#, 4
	note A#, 6
	note D#, 6
;Bar 31
	note D#, 4
	note D#, 4
	note D#, 2
	note C_, 4
	note D#, 2
;Bar 32
	note G_, 4
	note D#, 4
	note D#, 2
	note C#, 2
	note D#, 2
	note G_, 4
;Bar 33
	callchannel Music_Placeholder_Ch4_Bar29
;Bar 34
	note D#, 2
	note G_, 2
	note D#, 2
	note G_, 4
	note G_, 2
	note G_, 4
;Bar 35
	note D#, 2
	note G_, 4
	note G_, 2
	note G_, 4
	note D#, 2
	note G_, 4
;Bar 36
	note G_, 2
	note D#, 4
	note G_, 4
	note D#, 4
;Bar 37
	note D#, 2
	note G_, 2
	note D#, 2
	note G_, 4
	note G_, 2
	note D#, 4
;Bar 38
	note G_, 4
	note D#, 4
	note D#, 2
	note G_, 2
	note D#, 4
;Bar 39
	callchannel Music_Placeholder_Ch4_Bar39
;Bar 40
	callchannel Music_Placeholder_Ch4_Bar40
;Bar 41
	callchannel Music_Placeholder_Ch4_Bar41
;Bar 42
	callchannel Music_Placeholder_Ch4_Bar39
;Bar 43
	callchannel Music_Placeholder_Ch4_Bar40
;Bar 44
	callchannel Music_Placeholder_Ch4_Bar41
;Bar 45
	note G_, 2
	note D#, 2
	note G_, 4
	note G_, 4
	note D#, 4
;Bar 46
	note D#, 4
	note D#, 4
	note G_, 2
	note D#, 2
	note G_, 2
	note G_, 1
	note G_, 2
	endchannel

Music_Placeholder_Ch4_Bar1:
	note D#, 4;
	note G#, 2
	note D#, 2
	note A_, 4
	note A_, 4
	endchannel

Music_Placeholder_Ch4_Bar2:
	note D#, 4;
	note D#, 4
	note D#, 4
	note G#, 2
	note D#, 2
	endchannel

Music_Placeholder_Ch4_Bar3:
	note A_, 4;
	note A_, 4
	note D#, 4
	note D#, 4
	endchannel

Music_Placeholder_Ch4_Bar7:
	note D#, 4;
	note G_, 2
	note D#, 2
	note G_, 4
	note G_, 4
	endchannel

Music_Placeholder_Ch4_Bar8:
	note D#, 4;
	note D#, 4
	note D#, 4
	note G_, 2
	note D#, 2
	endchannel

Music_Placeholder_Ch4_Bar9:
	note G_, 2;
	note G_, 2
	note C_, 4
	note D#, 4
	note D#, 4
	endchannel

Music_Placeholder_Ch4_Bar13:
	note D#, 2;
	note C_, 2
	note G_, 2
	note D#, 2
	note G_, 4
	note G_, 4
	endchannel

Music_Placeholder_Ch4_Bar14:
	note D#, 4;
	note D#, 4
	note D#, 2
	note C_, 2
	note G_, 2
	note D#, 2
	endchannel

Music_Placeholder_Ch4_Bar16:
	note D#, 2;
	note C_, 2
	note G_, 2
	note C#, 2
	note G_, 4
	note G_, 4
	endchannel

Music_Placeholder_Ch4_Bar17:
	note D#, 4;
	note D#, 4
	note D#, 2
	note C_, 2
	note G_, 2
	note C#, 2
	endchannel

Music_Placeholder_Ch4_Bar29:
	note D#, 2;
	note G_, 4
	note C_, 4
	note D#, 4
	endchannel

Music_Placeholder_Ch4_Bar41:
	note A_, 4;
	note D#, 4
	note D#, 4
	note D#, 4
	endchannel

Music_Placeholder_Ch4_Bar40:
	note D#, 4;
	note D#, 4
	note G#, 2
	note D#, 2
	note A_, 4
	endchannel

Music_Placeholder_Ch4_Bar39:
	note G#, 2;
	note D#, 2
	note A_, 4
	note A_, 4
	note D#, 4
	endchannel
