Music_CorneredVariation:
	musicheader 4, 1, Music_CorneredVariation_Ch1
	musicheader 1, 2, Music_CorneredVariation_Ch2
	musicheader 1, 3, Music_CorneredVariation_Ch3
	musicheader 1, 4, Music_CorneredVariation_Ch4

; ============================================================================================================
Music_CorneredVariation_Ch1:
	tempo 128
	volume $77
	stereopanning $ff
	notetype $c, $b8
	note __, 8

Music_CorneredVariation_Ch1_master:
;Bar5:
	dutycycle $2
	vibrato $00, $12
	octave 5
	intensity $b8
	note C_, 12
	intensity $87
	note C_, 1
	intensity $57
	note C_, 1
	octave 4
	intensity $b8
	note A#, 1
	octave 5
	note C_, 1
;Bar6:
	octave 4
	note F_, 8
	intensity $a8
	note F_, 1
	note D#, 1
	note F_, 1
	octave 5
	note C_, 1
	octave 3
	note G#, 1
	octave 4
	note C_, 1
	note G_, 1
	note G#, 1
;Bar7:
	intensity $d8
	note A#, 2
	intensity $b8
	note C#, 2
	note F_, 2
	note A#, 2
	note G#, 2
	note C#, 2
	note F_, 2
	note G#, 2
;Bar8:
	intensity $d8
	note G_, 2
	intensity $b8
	octave 3
	note A#, 2
	octave 4
	note D#, 2
	note G_, 2
	intensity $d8
	note D#, 2
	intensity $b8
	octave 3
	note D#, 2
	note A#, 2
	octave 4
	note D#, 2
;Bar9:
	intensity $d8
	note F_, 1
	intensity $a8
	octave 3
	note F_, 1
	note G#, 1
	octave 4
	note C_, 1
	note G_, 1
	octave 3
	note G#, 1
	octave 4
	note C_, 1
	note G_, 1
	note G#, 1
	note C_, 1
	note F_, 1
	note G#, 1
	octave 5
	intensity $d8
	note C_, 2
	intensity $b8
	octave 4
	note C_, 2
;Bar10:
	octave 5
	intensity $d8
	note C#, 2
	intensity $b8
	octave 4
	note F_, 2
	note G#, 2
	octave 5
	note C#, 2
	intensity $d8
	note C_, 1
	intensity $b8
	octave 4
	note C_, 1
	note G_, 1
	octave 5
	note C_, 1
	octave 4
	intensity $d8
	note G#, 1
	intensity $b8
	octave 3
	note G#, 1
	octave 4
	note C_, 1
	note F_, 1
;Bar11:
	intensity $d8
	note A#, 2
	intensity $b8
	octave 3
	note A#, 2
	octave 4
	note D#, 2
	note A#, 2
	octave 5
	intensity $d8
	note D#, 2
	intensity $b8
	octave 4
	note D#, 2
	note A#, 2
	octave 5
	note D#, 2
;Bar12:
	intensity $d8
	note C_, 2
	intensity $b8
	octave 4
	note C_, 2
	note F_, 2
	octave 5
	note C_, 2
	octave 4
	intensity $d8
	note A#, 2
	intensity $b8
	note C_, 2
	intensity $d8
	note G#, 2
	intensity $b8
	note C_, 2
;Bar13:
	intensity $d8
	note G_, 2
	intensity $b8
	octave 3
	note G#, 2
	octave 4
	note D#, 2
	note G_, 2
	intensity $d8
	note G#, 2
	intensity $b8
	octave 3
	note G#, 2
	octave 4
	note D#, 2
	note G#, 2
;Bar14:
	note F_, 1
	intensity $87
	note F_, 1
	note F_, 1
	intensity $67
	note F_, 1
	note F_, 1
	intensity $47
	note F_, 1
	intensity $97
	note F_, 1
	intensity $87
	note F_, 1
	note F_, 1
	intensity $67
	note F_, 1
	note F_, 1
	intensity $47
	note F_, 1
	intensity $87
	note F_, 1
	intensity $67
	note F_, 1
	note F_, 1
	intensity $47
	note F_, 1
;Bar15:
	intensity $67
	note F_, 1
	intensity $47
	note F_, 1
	note F_, 1
	intensity $37
	note F_, 1
	note F_, 1
	intensity $27
	note F_, 1
	intensity $17
	note F_, 1
	intensity $15
	note F_, 1
	note __, 8
;Bar16:
	note __, 16
;Bar17:
	dutycycle $1
	vibrato $00, $22
	octave 5
	intensity $c8
	note C_, 8
	note D#, 6
	octave 4
	note G#, 1
	note A#, 1
;Bar18:
	note G#, 12
	intensity $87
	note G#, 1
	intensity $57
	note G#, 1
	intensity $c8
	note A#, 1
	octave 5
	note C_, 1
;Bar19:
	octave 4
	note A#, 14
	intensity $87
	note A#, 1
	intensity $57
	note A#, 1
;Bar20:
	intensity $d8
	note G_, 2
	intensity $b8
	octave 3
	note A#, 2
	octave 4
	note D#, 2
	note G_, 2
	intensity $d8
	note D#, 2
	intensity $b8
	octave 3
	note D#, 2
	note G_, 2
	note A#, 2
;Bar21:
	octave 4
	intensity $d8
	note F_, 2
	intensity $b8
	octave 3
	note G#, 2
	octave 4
	note C_, 2
	note F_, 2
	intensity $d8
	note C_, 2
	intensity $b8
	octave 3
	note F_, 2
	note G#, 2
	octave 4
	note C_, 2
;Bar22:
	intensity $d8
	note C#, 2
	intensity $b8
	octave 3
	note F_, 2
	note G#, 2
	octave 4
	note C#, 2
	intensity $d8
	note D#, 2
	intensity $b8
	octave 3
	note G#, 2
	octave 4
	intensity $d8
	note G_, 2
	intensity $b8
	octave 3
	note A#, 2
;Bar23:
	octave 4
	intensity $d8
	note G#, 2
	intensity $b8
	note C_, 2
	note D#, 2
	note G#, 2
	intensity $d8
	note F_, 2
	intensity $b8
	octave 3
	note G#, 2
	octave 4
	note C_, 2
	note F_, 2
;Bar24:
	intensity $d8
	note A#, 2
	intensity $b8
	note C#, 2
	note F_, 2
	note A#, 2
	intensity $d8
	note G_, 2
	intensity $b8
	octave 3
	note A#, 2
	octave 4
	intensity $d8
	note D#, 2
	intensity $b8
	octave 3
	note A#, 2
;Bar25:
	notetype 8, $c8
	octave 4
	note F_, 2
	octave 3
	note A#, 2
	octave 4
	note C_, 2
	intensity $97
	note F_, 2
	octave 3
	note A#, 2
	octave 4
	note C_, 2
	note F_, 2
	octave 3
	note A#, 2
	octave 4
	note C_, 2
	intensity $77
	note F_, 2
	octave 3
	note A#, 2
	octave 4
	note C_, 2
	note F_, 2
	octave 3
	note A#, 2
	octave 4
	note C_, 2
	intensity $47
	note F_, 2
;Bar26:
	octave 3
	note A#, 2
	octave 4
	note C_, 2
	intensity $37
	note F_, 2
	octave 3
	intensity $27
	note A#, 2
	octave 4
	intensity $15
	note C_, 2
	note __, 6
	notetype 12, $c8
;Bar27:
	note __, 16
;Bar28:
	note __, 16

	loopchannel 0, Music_CorneredVariation_Ch1_master
	endchannel

; ============================================================================================================
Music_CorneredVariation_Ch2:
	stereopanning $f
	;vibrato $12, $14
	notetype 12, $a4
	dutycycle $0
	octave 3

	note __, 8
Music_CorneredVariation_Ch2_master:
	callchannel Music_CorneredVariation_loop
	callchannel Music_CorneredVariation_loop
	octave 4
	note C_, 3
	note C_, 3
	note C_, 3
	note C_, 3
	note C_, 2
	note C#, 2
;Bar2:
	note C_, 3
	note C_, 3
	note C_, 3
	note C_, 3
	note C_, 2
	octave 3
	note B_, 2
;Bar3:
	octave 4
	note C_, 3
	note C_, 3
	note C_, 3
	note C_, 1
	note C_, 2
	note C_, 2
	note C#, 2
;Bar4:
	note C_, 3
	note C_, 3
	note C_, 2

	stereopanning $ff
	notetype 8, $a4
	octave 4
	note F_, 4
	note G_, 4
	note A#, 4
	octave 5
	stereopanning $f
	notetype 12, $a4
	callchannel Music_CorneredVariation_loop
	callchannel Music_CorneredVariation_loop
	callchannel Music_CorneredVariation_loop
	loopchannel 0, Music_CorneredVariation_Ch2_master
	endchannel

Music_CorneredVariation_loop:
;Bar1:
	octave 4
	note C_, 3
	note C_, 3
	note C_, 3
	note C_, 3
	note C_, 2
	note C#, 2
;Bar2:
	note C_, 3
	note C_, 3
	note C_, 3
	note C_, 3
	note C_, 2
	octave 3
	note B_, 2
;Bar3:
	octave 4
	note C_, 3
	note C_, 3
	note C_, 3
	note C_, 1
	note C_, 2
	note C_, 2
	note C#, 2
;Bar4:
	note C_, 3
	note C_, 3
	note C_, 3
	note C_, 1
	note C_, 2
	note C_, 2
	octave 3
	note B_, 2
	endchannel

; ============================================================================================================
Music_CorneredVariation_Ch3:
	stereopanning $ff
	wavetype 1, 6, $24
	vibrato $00, $14

	note __, 16
	octave 3
Music_CorneredVariation_Ch3_master:
;Bar5:
	callchannel Music_CorneredVariation_Ch3_F
;Bar6:
	callchannel Music_CorneredVariation_Ch3_Gsharp
;Bar7:
	callchannel Music_CorneredVariation_Ch3_Csharp
;Bar8:
	callchannel Music_CorneredVariation_Ch3_Dsharp
;Bar9:
	callchannel Music_CorneredVariation_Ch3_F
;Bar10:
	callchannel Music_CorneredVariation_Ch3_Gsharp
;Bar11:
	callchannel Music_CorneredVariation_Ch3_Csharp
;Bar12:
	callchannel Music_CorneredVariation_Ch3_Dsharp
;Bar13:
	callchannel Music_CorneredVariation_Ch3_F
;Bar14:
	callchannel Music_CorneredVariation_Ch3_C
;Bar15:
	callchannel Music_CorneredVariation_Ch3_Csharp
;Bar16:
	note D#, 3
	note __, 1
	note D#, 2
	note D#, 3
	note __, 1
	note D#, 2
	note D#, 3
	note __, 1

	notetype 8, $24
	note C_, 3
	note C_, 1
	note D#, 3
	note D#, 1
	note E_, 3
	note E_, 1
	notetype 6, $24
;Bar17:
	callchannel Music_CorneredVariation_Ch3_F
;Bar18:
	callchannel Music_CorneredVariation_Ch3_Gsharp
;Bar19:
	callchannel Music_CorneredVariation_Ch3_Csharp
;Bar20:
	callchannel Music_CorneredVariation_Ch3_Dsharp
;Bar21:
	callchannel Music_CorneredVariation_Ch3_Csharp
;Bar22:
	callchannel Music_CorneredVariation_Ch3_Gsharp
;Bar23:
	callchannel Music_CorneredVariation_Ch3_Csharp
;Bar24:
	callchannel Music_CorneredVariation_Ch3_Dsharp
;Bar25:
	callchannel Music_CorneredVariation_Ch3_F
;Bar26:
	callchannel Music_CorneredVariation_Ch3_G
;Bar27:
	callchannel Music_CorneredVariation_Ch3_Csharp
;Bar28:
	callchannel Music_CorneredVariation_Ch3_Dsharp
	loopchannel 0, Music_CorneredVariation_Ch3_master
	endchannel

Music_CorneredVariation_Ch3_Gsharp:
	note G#, 3
	note __, 1
	note G#, 2
	note G#, 3
	note __, 1
	note G#, 2
	note G#, 3
	note __, 1
	note G#, 2
	note G#, 3
	note __, 1
	note G#, 2
	note G#, 3
	note __, 1

	note G#, 3
	note __, 1
	endchannel

Music_CorneredVariation_Ch3_G:
	note G_, 3
	note __, 1
	note G_, 2
	note G_, 3
	note __, 1
	note G_, 2
	note G_, 3
	note __, 1
	note G_, 2
	note G_, 3
	note __, 1
	note G_, 2
	note G_, 3
	note __, 1

	note G_, 3
	note __, 1
	endchannel

Music_CorneredVariation_Ch3_C:
	note C_, 3
	note __, 1
	note C_, 2
	note C_, 3
	note __, 1
	note C_, 2
	note C_, 3
	note __, 1
	note C_, 2
	note C_, 3
	note __, 1
	note C_, 2
	note C_, 3
	note __, 1

	note C_, 3
	note __, 1
	endchannel

Music_CorneredVariation_Ch3_Csharp:
	note C#, 3
	note __, 1
	note C#, 2
	note C#, 3
	note __, 1
	note C#, 2
	note C#, 3
	note __, 1
	note C#, 2
	note C#, 3
	note __, 1
	note C#, 2
	note C#, 3
	note __, 1

	note C#, 3
	note __, 1
	endchannel

Music_CorneredVariation_Ch3_Dsharp:
	note D#, 3

	note __, 1
	note D#, 2
	note D#, 3

	note __, 1
	note D#, 2
	note D#, 3

	note __, 1
	note D#, 2
	note D#, 3

	note __, 1
	note D#, 2
	note D#, 3

	note __, 1
	note D#, 3
	note __, 1
	endchannel

Music_CorneredVariation_Ch3_F:
	note F_, 3
	note __, 1
	note F_, 2
	note F_, 3
	note __, 1
	note F_, 2
	note F_, 3
	note __, 1
	note F_, 2
	note F_, 3
	note __, 1
	note F_, 2
	note F_, 3
	note __, 1
	note F_, 2
	note F_, 2
	endchannel

; ============================================================================================================
Music_CorneredVariation_Ch4:
	notetype 12
	stereopanning $ff
	togglenoise $c

	notetype 8
	note E_, 4
	note F_, 4
	note F#, 4
	notetype 12
	
Music_CorneredVariation_Ch4_master:
	note G_, 4
	note B_, 2
	stereopanning $f0
	note D#, 2
	stereopanning $ff
Music_CorneredVariation_Ch4_loop:
	callchannel Music_CorneredVariation_Ch4_BBBB
	loopchannel 9, Music_CorneredVariation_Ch4_loop
;Bar11:
	stereopanning $ff
	note B_, 1
	note D_, 1
	stereopanning $f0
	note D#, 2
	stereopanning $ff
	note D_, 2
	stereopanning $f0
	note D#, 2
	stereopanning $ff
	note B_, 2
	stereopanning $f0
	note D#, 2
	stereopanning $ff
	note D_, 2
	stereopanning $f0
	note D#, 2
	stereopanning $ff
;Bar12:
	callchannel Music_CorneredVariation_Ch4_BDBB
;Bar13:
	stereopanning $ff
	notetype 8
	note E_, 4
	note F_, 4
	note F#, 4
	notetype 12
	note G_, 4
	stereopanning $ff
	note D_, 2
	stereopanning $f0
	note D#, 2
	stereopanning $ff
;Bar14
	callchannel Music_CorneredVariation_Ch4_BBBB
;Bar15:
	callchannel Music_CorneredVariation_Ch4_BDBB
;Bar16:
	callchannel Music_CorneredVariation_Ch4_BBBB
;Bar17:
	stereopanning $ff
	note B_, 1
	note D_, 1
	stereopanning $f0
	note D#, 2
	stereopanning $ff
	note B_, 2
	
	note F_, 2
	note G_, 4
	stereopanning $ff
	note B_, 2
	stereopanning $f0
	note D#, 2
	stereopanning $ff
;Bar18:
	callchannel Music_CorneredVariation_Ch4_BBBB
;Bar19:
	stereopanning $ff
	note F_, 3
	note F_, 3
	note F#, 2
	note G_, 4
	stereopanning $ff
	note B_, 2
	stereopanning $f0
	note D#, 2
;Bar20:
	callchannel Music_CorneredVariation_Ch4_BBBB
;Bar21:
	stereopanning $ff
	note E_, 4
	note F_, 4
	note G_, 4
	stereopanning $f0
	note B_, 2
	note D#, 2
	stereopanning $ff
;Bar22:
	callchannel Music_CorneredVariation_Ch4_BBBB
;Bar23:
	stereopanning $ff
	note B_, 1
	note D_, 1
	stereopanning $f0
	note D#, 2
	stereopanning $ff
	note B_, 2

	note F_, 2
	note G_, 4

	note B_, 2
	stereopanning $f0
	note D#, 2
;Bar24:
	stereopanning $ff
	note B_, 2
	stereopanning $f0
	note D#, 2
	stereopanning $ff
	note B_, 2
	note F_, 2
	note F_, 4
	note __, 2
	note F_, 2
;Bar25:
	note F_, 3
	note F_, 3
	note F#, 2
	loopchannel 0, Music_CorneredVariation_Ch4_master
	endchannel

Music_CorneredVariation_Ch4_BDBD:
	stereopanning $ff
	note B_, 2
	stereopanning $f0
	note D#, 2
	stereopanning $ff
	note D_, 2
	stereopanning $f0
	note D#, 2
	stereopanning $ff
	note B_, 2
	stereopanning $f0
	note D#, 2
	stereopanning $ff
	note D_, 2
	stereopanning $f0
	note D#, 2
	stereopanning $ff
	endchannel

Music_CorneredVariation_Ch4_BDBB:
	stereopanning $ff
	note B_, 2
	stereopanning $f0
	note D#, 2
	stereopanning $ff
	note D_, 2
	stereopanning $f0
	note D#, 2
	stereopanning $ff
	note B_, 2
	stereopanning $f0
	note D#, 2
	stereopanning $ff
	note B_, 2
	stereopanning $f0
	note D#, 2
	stereopanning $ff
	endchannel

Music_CorneredVariation_Ch4_BDBDD:
	stereopanning $ff
	note B_, 2
	stereopanning $f0
	note D#, 2
	stereopanning $ff
	note D_, 2
	stereopanning $f0
	note D#, 2
	stereopanning $ff
	note B_, 1
	note D_, 1
	stereopanning $f0
	note D#, 2
	stereopanning $ff
	note D_, 2
	stereopanning $f0
	note D#, 2
	stereopanning $ff
	endchannel

Music_CorneredVariation_Ch4_BBBB:
	stereopanning $ff
	note B_, 2
	stereopanning $f0
	note D#, 2
	stereopanning $ff
	note B_, 2
	stereopanning $f0
	note D#, 2
	stereopanning $ff
	note B_, 2
	stereopanning $f0
	note D#, 2
	stereopanning $ff
	note B_, 2
	stereopanning $f0
	note D#, 2
	endchannel




