Music_TestimonyMod2001:
; Phoenix Wright: Ace Attorney - Cross-Examination 2001 ~ Allegro
; Demixed by TriteHexagon
	musicheader 3, 1, Music_TestimonyMod2001_Ch1
	musicheader 1, 2, Music_TestimonyMod2001_Ch2
	musicheader 1, 3, Music_TestimonyMod2001_Ch3

; ============================================================================================================
Music_TestimonyMod2001_Ch1:
	tempo 152
	volume $77
	dutycycle $2
	stereopanning $ff
	notetype 12, $18

Music_TestimonyMod2001_Ch1_Master:
;Bar1:
	note __, 16
	loopchannel 0, Music_TestimonyMod2001_Ch1_Master

; ============================================================================================================
Music_TestimonyMod2001_Ch2:
	stereopanning $ff
	vibrato $a7, $25
	notetype $c, $48
	dutycycle $2

Music_TestimonyMod2001_Ch2_Master:
;Bar1:
	notetype $c, $c4
	octave 3
	note A_, 2
	callchannel Music_TestimonyMod2001_Ch2_DoubleA
	octave 3
	note B_, 2
	callchannel Music_TestimonyMod2001_Ch2_DoubleA
	octave 4
	note C_, 2
	callchannel Music_TestimonyMod2001_Ch2_DoubleA
	octave 3
	note B_, 2
	callchannel Music_TestimonyMod2001_Ch2_DoubleA
	octave 4
	note D_, 2
	callchannel Music_TestimonyMod2001_Ch2_A
	octave 3
	note B_, 2
	callchannel Music_TestimonyMod2001_Ch2_A
;Bar3:
	octave 4
	note C_, 2
	callchannel Music_TestimonyMod2001_Ch2_DoubleA
	octave 3
	note B_, 2
	callchannel Music_TestimonyMod2001_Ch2_DoubleA
	octave 3
	note G_, 2
	callchannel Music_TestimonyMod2001_Ch2_DoubleA
	octave 3
	note E_, 2
	callchannel Music_TestimonyMod2001_Ch2_DoubleA
	octave 3
	note G_, 2
	callchannel Music_TestimonyMod2001_Ch2_A
	octave 3
	note B_, 2
	callchannel Music_TestimonyMod2001_Ch2_A
;Bar5:
	octave 3
	note A_, 2
	callchannel Music_TestimonyMod2001_Ch2_DoubleA
	octave 3
	note B_, 2
	callchannel Music_TestimonyMod2001_Ch2_DoubleA
	octave 4
	note C_, 2
	callchannel Music_TestimonyMod2001_Ch2_DoubleA
	octave 3
	note B_, 2
	callchannel Music_TestimonyMod2001_Ch2_DoubleA
	octave 4
	note D_, 2
	callchannel Music_TestimonyMod2001_Ch2_A
	octave 3
	note B_, 2
	callchannel Music_TestimonyMod2001_Ch2_A
;Bar7:
	octave 4
	note C_, 2
	callchannel Music_TestimonyMod2001_Ch2_DoubleA
	octave 3
	note B_, 2
	callchannel Music_TestimonyMod2001_Ch2_DoubleA
	octave 3
	note G_, 2
	callchannel Music_TestimonyMod2001_Ch2_DoubleA
	octave 3
	note D_, 2
	callchannel Music_TestimonyMod2001_Ch2_DoubleA
	octave 3
	note E_, 2
	callchannel Music_TestimonyMod2001_Ch2_A
	octave 3
	note B_, 2
	callchannel Music_TestimonyMod2001_Ch2_A
;Bar9:
Music_TestimonyMod2001_Ch2_Part2:
	octave 3
	note A_, 2
	callchannel Music_TestimonyMod2001_Ch2_DoubleA
	octave 3
	note B_, 2
	callchannel Music_TestimonyMod2001_Ch2_DoubleA
	octave 4
	note C_, 2
	callchannel Music_TestimonyMod2001_Ch2_DoubleA
;Bar10:
	octave 3
	note B_, 2
	callchannel Music_TestimonyMod2001_Ch2_DoubleA
	octave 4
	note D_, 2
	callchannel Music_TestimonyMod2001_Ch2_A
	octave 3
	note B_, 2
	callchannel Music_TestimonyMod2001_Ch2_A
;Bar11:
	octave 4
	note C_, 2
	callchannel Music_TestimonyMod2001_Ch2_DoubleA
	octave 3
	note B_, 2
	callchannel Music_TestimonyMod2001_Ch2_DoubleA
	octave 3
	note G_, 2
	callchannel Music_TestimonyMod2001_Ch2_DoubleA
;Bar12:
	octave 3
	note E_, 2
	callchannel Music_TestimonyMod2001_Ch2_DoubleA
	octave 3
	note G_, 2
	callchannel Music_TestimonyMod2001_Ch2_A
	octave 3
	note B_, 2
	callchannel Music_TestimonyMod2001_Ch2_G
;Bar13:
	octave 3
	note A_, 2
	callchannel Music_TestimonyMod2001_Ch2_DoubleF
	octave 3
	note B_, 2
	callchannel Music_TestimonyMod2001_Ch2_DoubleF
	octave 4
	note C_, 2
	callchannel Music_TestimonyMod2001_Ch2_DoubleF
;Bar14:
	octave 3
	note B_, 2
	callchannel Music_TestimonyMod2001_Ch2_DoubleF
	octave 4
	note D_, 2
	callchannel Music_TestimonyMod2001_Ch2_F
	octave 3
	note B_, 2
	callchannel Music_TestimonyMod2001_Ch2_F
;Bar15:
	octave 4
	note C_, 2
	callchannel Music_TestimonyMod2001_Ch2_DoubleG
	octave 3
	note B_, 2
	callchannel Music_TestimonyMod2001_Ch2_DoubleG
	octave 3
	note G_, 2
	callchannel Music_TestimonyMod2001_Ch2_DoubleG
;Bar16:
	octave 3
	note D_, 2
	callchannel Music_TestimonyMod2001_Ch2_DoubleG
	octave 3
	note E_, 2
	callchannel Music_TestimonyMod2001_Ch2_G
	octave 3
	note B_, 2
	callchannel Music_TestimonyMod2001_Ch2_G
	loopchannel 2, Music_TestimonyMod2001_Ch2_Part2
	
	loopchannel 0, Music_TestimonyMod2001_Ch2_Master
	endchannel

Music_TestimonyMod2001_Ch2_DoubleA:
	octave 1
	dutycycle $3
	intensity $93
	note A_, 1
	note __, 1
	dutycycle $3
	intensity $93
	note A_, 1
	note __, 1
	dutycycle $2
	intensity $c4
	endchannel

Music_TestimonyMod2001_Ch2_DoubleG:
	octave 1
	dutycycle $3
	intensity $93
	note G_, 1
	note __, 1
	dutycycle $3
	intensity $93
	note G_, 1
	note __, 1
	dutycycle $2
	intensity $c4
	endchannel

Music_TestimonyMod2001_Ch2_DoubleF:
	octave 1
	dutycycle $3
	intensity $93
	note F_, 1
	note __, 1
	dutycycle $3
	intensity $93
	note F_, 1
	note __, 1
	dutycycle $2
	intensity $c4
	endchannel

Music_TestimonyMod2001_Ch2_A:
	octave 1
	dutycycle $3
	intensity $93
	note A_, 1
	note __, 1
	dutycycle $2
	intensity $c4
	endchannel

Music_TestimonyMod2001_Ch2_G:
	octave 1
	dutycycle $3
	intensity $93
	note G_, 1
	note __, 1
	dutycycle $2
	intensity $c4
	endchannel

Music_TestimonyMod2001_Ch2_F:
	octave 1
	dutycycle $3
	intensity $93
	note F_, 1
	note __, 1
	dutycycle $2
	intensity $c4
	endchannel

; ============================================================================================================
Music_TestimonyMod2001_Ch3:
	stereopanning $ff
	;vibrato $16, $14
	wavetype 1, 12, $15

Music_TestimonyMod2001_Ch3_Master:
Music_TestimonyMod2001_Ch3_Silence:
;Bar1:
	note __, 16
	loopchannel 8, Music_TestimonyMod2001_Ch3_Silence
;Bar9:
	octave 4
	callchannel Music_TestimonyMod2001_Ch3_E
;Bar10:
	callchannel Music_TestimonyMod2001_Ch3_B
;Bar11:
	octave 5
	callchannel Music_TestimonyMod2001_Ch3_C
;Bar12:
	octave 4
	callchannel Music_TestimonyMod2001_Ch3_B
;Bar13:
	callchannel Music_TestimonyMod2001_Ch3_E
;Bar14:
	callchannel Music_TestimonyMod2001_Ch3_A
;Bar15:
	octave 5
	callchannel Music_TestimonyMod2001_Ch3_C
;Bar16:
	octave 4
	callchannel Music_TestimonyMod2001_Ch3_B
;Bar17:
	callchannel Music_TestimonyMod2001_Ch3_A
;Bar18:
	octave 5
	callchannel Music_TestimonyMod2001_Ch3_C
;Bar19:
	octave 4
	callchannel Music_TestimonyMod2001_Ch3_B
;Bar20:
	callchannel Music_TestimonyMod2001_Ch3_G
;Bar21:
	callchannel Music_TestimonyMod2001_Ch3_A
;Bar22:
	octave 5
	callchannel Music_TestimonyMod2001_Ch3_C
;Bar23:
	octave 4
	callchannel Music_TestimonyMod2001_Ch3_B
;Bar24:
	callchannel Music_TestimonyMod2001_Ch3_G
	loopchannel 0, Music_TestimonyMod2001_Ch3_Master

Music_TestimonyMod2001_Ch3_G:
	intensity $25
	note G_, 2
	intensity $15
	note G_, 14
	endchannel

Music_TestimonyMod2001_Ch3_E:
	intensity $25
	note E_, 2
	intensity $15
	note E_, 14
	endchannel

Music_TestimonyMod2001_Ch3_B:
	intensity $25
	note B_, 2
	intensity $15
	note B_, 14
	endchannel

Music_TestimonyMod2001_Ch3_A:
	intensity $25
	note A_, 2
	intensity $15
	note A_, 14
	endchannel

Music_TestimonyMod2001_Ch3_C:
	intensity $25
	note C_, 2
	intensity $15
	note C_, 14
	endchannel

; ============================================================================================================

