Music_Cities2:
	musicheader 4, 1, Music_Cities2_Ch1
	musicheader 1, 2, Music_Cities2_Ch2
	musicheader 1, 3, Music_Cities2_Ch3
	musicheader 1, 4, Music_Cities2_Ch4

; Cerulean City
Music_Cities2_Ch1: ; b504 (2:7504)
	tempo 154
	stereopanning $f0
	volume 119
	dutycycle 3
	vibrato 8, 50
	notetype 12, 182
	note __, 8
	octave 3
	note E_, 2
	note D#, 2
	note C#, 2
	note C_, 2
	octave 2
	note B_, 2
	note __, 14
Music_Cities2_branch_b51a:
	octave 3
	note B_, 4
	octave 4
	note C#, 2
	note D#, 1
	note D_, 1
	note C#, 4
	octave 3
	note B_, 4
	note G#, 8
	note E_, 8
	note A_, 4
	note G#, 2
	note F#, 2
	note G#, 2
	note A_, 2
	note B_, 2
	octave 4
	note C#, 2
	note __, 16
	note C#, 4
	octave 3
	note B_, 2
	octave 4
	note C#, 1
	note D#, 1
	note C#, 4
	octave 3
	note B_, 4
	note E_, 1
	note E_, 1
	note E_, 1
	note E_, 1
	note E_, 1
	note __, 3
	note G#, 8
	note B_, 4
	note A_, 2
	note G#, 2
	note F#, 2
	note G#, 2
	note A_, 2
	note B_, 2
	note E_, 2
	note F#, 2
	note G#, 2
	note __, 2
	octave 4
	note E_, 4
	octave 3
	note B_, 4
	note F#, 2
	note G#, 2
	note A_, 2
	note __, 2
	octave 4
	note F#, 4
	note D#, 4
	octave 3
	note E_, 2
	note __, 4
	note F#, 2
	note __, 4
	note A_, 2
	note __, 2
	note B_, 2
	note __, 16
	note __, 16
	note __, 14
	note E_, 16
	note F#, 8
	note G#, 4
	note F#, 4
	note E_, 2
	note __, 14
	loopchannel 0, Music_Cities2_branch_b51a

Music_Cities2_Ch2: ; b569 (2:7569)
	dutycycle 3
	stereopanning $ff
	vibrato 8, 35
	notetype 12, 194
	octave 4
	note E_, 2
	note D#, 2
	note C#, 2
	octave 3
	note B_, 2
	note A_, 2
	note B_, 2
	octave 4
	note C#, 2
	note D#, 2
	note E_, 6
	notetype 12, 194
	dutycycle 2
	octave 4
	note E_, 1
	octave 3
	note B_, 1
	octave 4
	note C#, 2
	note D#, 2
	note E_, 1
	note F#, 1
	note G#, 1
	note A_, 1
Music_Cities2_branch_b58b:
	notetype 12, 166
	note G#, 6
	notetype 12, 194
	note A_, 1
	note G#, 1
	notetype 12, 196
	note F#, 14
	notetype 12, 194
	note E_, 1
	octave 3
	note B_, 1
	octave 4
	note C#, 2
	note D#, 2
	note E_, 1
	note F#, 1
	note G#, 1
	note A_, 1
	notetype 12, 196
	note G#, 6
	notetype 12, 194
	note E_, 1
	note G#, 1
	notetype 12, 197
	note B_, 14
	notetype 12, 194
	note E_, 1
	octave 3
	note B_, 1
	octave 4
	note C#, 2
	note D#, 2
	note E_, 1
	note F#, 1
	note G#, 1
	note A_, 1
	notetype 12, 166
	note G#, 6
	notetype 12, 194
	note A_, 1
	note G#, 1
	notetype 12, 196
	note F#, 8
	notetype 12, 161
	dutycycle 1
	octave 3
	note G#, 1
	note G#, 1
	note G#, 1
	note G#, 1
	note G#, 1
	note __, 1
	notetype 12, 194
	dutycycle 2
	octave 4
	note E_, 1
	octave 3
	note B_, 1
	octave 4
	note C#, 2
	note D#, 2
	note E_, 1
	note F#, 1
	note G#, 1
	note A_, 1
	notetype 12, 196
	note G#, 6
	note E_, 1
	note G#, 1
	notetype 12, 198
	note B_, 8
	notetype 12, 194
	note C#, 1
	octave 3
	note B_, 1
	octave 4
	note C#, 1
	note D#, 1
	note E_, 4
	notetype 12, 199
	note G#, 4
	note E_, 4
	notetype 12, 194
	note D#, 1
	note C#, 1
	note D#, 1
	note E_, 1
	note F#, 4
	notetype 12, 199
	note B_, 4
	note F#, 4
	notetype 12, 194
	note C#, 1
	octave 3
	note B_, 1
	octave 4
	note C#, 1
	note D#, 1
	note E_, 2
	note E_, 1
	note D#, 1
	note E_, 1
	note F#, 1
	note G#, 2
	note G#, 1
	note A_, 1
	note G#, 1
	note A_, 1
	note B_, 1
	note F#, 1
	note D#, 1
	note C#, 1
	octave 3
	note B_, 1
	octave 4
	note C#, 1
	note D#, 1
	note F#, 1
	notetype 12, 194
	note B_, 8
	notetype 12, 183
	octave 3
	note E_, 8
	octave 2
	note B_, 4
	octave 3
	note F#, 4
	note G#, 4
	note A_, 4
	note B_, 8
	note B_, 8
	note G#, 4
	octave 4
	note D#, 4
	note C#, 4
	note D#, 4
	note E_, 2
	note D#, 2
	note C#, 2
	note D#, 2
	notetype 12, 194
	note E_, 6
	note E_, 1
	octave 3
	note B_, 1
	octave 4
	note C#, 2
	note D#, 2
	note E_, 1
	note F#, 1
	note G#, 1
	note A_, 1
	loopchannel 0, Music_Cities2_branch_b58b

Music_Cities2_Ch3: ; b640 (2:7640)
	notetype 12, $13
	stereopanning $f
	tone $0001
	note __, 16
	octave 4
	
Music_Cities2_Ch3_master:
	callchannel Music_Cities2_Ch3_Pattern1
	callchannel Music_Cities2_Ch3_Pattern2
	callchannel Music_Cities2_Ch3_Pattern1
	callchannel Music_Cities2_Ch3_Pattern2
	callchannel Music_Cities2_Ch3_Pattern1
	callchannel Music_Cities2_Ch3_Pattern2
	callchannel Music_Cities2_Ch3_Pattern1
	callchannel Music_Cities2_Ch3_Pattern2

	note E_, 2
	note G#, 2
	note E_, 2
	note __, 2
	note E_, 4
	note G#, 4
	note F#, 2
	note A_, 2
	note F#, 2
	note __, 2
	note F#, 4
	note A_, 4
	note C#, 2
	note __, 4
	note E_, 2
	note __, 4
	note G#, 2
	note A_, 2
	note B_, 2
	note __, 8
	note A_, 2
	note G#, 2
	note F#, 2

	callchannel Music_Cities2_Ch3_Pattern1
	callchannel Music_Cities2_Ch3_Pattern2
	callchannel Music_Cities2_Ch3_Pattern1
	callchannel Music_Cities2_Ch3_Pattern2

	loopchannel 0, Music_Cities2_Ch3_master

Music_Cities2_Ch3_Pattern1:
	note E_, 2
	note G#, 2
	loopchannel 4, Music_Cities2_Ch3_Pattern1
	endchannel

Music_Cities2_Ch3_Pattern2:
	note F#, 2
	note A_, 2
	note F#, 2
	note A_, 2
	note B_, 2
	note A_, 2
	note G#, 2
	note F#, 2
	endchannel

Music_Cities2_Ch4:
	notetype 12
	togglenoise $3
	stereopanning $ff
;Bar 1
	note __, 7
	notetype 6
	note G#, 1
	note G#, 1
	notetype 12
	note G#, 2
	note F#, 2
	note G#, 1
	note G#, 1
	note F#, 2
Music_Cities2_Ch4_master:
;Bar 2
	callchannel Music_Cities2_Ch4_pattern1
	note C_, 2
	note D#, 2
;Bar 3
	callchannel Music_Cities2_Ch4_pattern2
	note C_, 2
	note D#, 2
;Bar 4
	callchannel Music_Cities2_Ch4_pattern2
	note C_, 4
;Bar 5
	note D#, 2
	note F#, 2
	notetype 6
	note C_, 1
	note C_, 1
	notetype 12
	note C_, 1
	note F#, 2
	note C_, 2
	note F#, 2
	note C_, 1
	note C_, 1
	note A#, 2
;Bar 6
	callchannel Music_Cities2_Ch4_pattern1
	note C_, 2
	note D#, 2
;Bar 7
	callchannel Music_Cities2_Ch4_pattern2
	note C_, 2
	note D#, 2
;Bar 8
	note D#, 1
	note C_, 1
	note F#, 2
	note C_, 3
	note D#, 1
	note D#, 2
	note D#, 2
	note C_, 4
;Bar 9
	note D#, 2
	note F#, 2
	note C_, 3
	note D#, 1
	note C_, 2
	note D#, 2
	note C_, 1
	note C_, 1
	note A#, 2
;Bar 10
	note C_, 2
	note F#, 2
	note A#, 3
	note D#, 1
	note D#, 4
	note C_, 2
	note D#, 2
;Bar 11
	callchannel Music_Cities2_Ch4_pattern2
	note C_, 2
	note D#, 2
;Bar 12
	note D#, 2
	note F#, 1
	note C_, 1
	note D#, 2
	note C_, 4
	note C_, 2
	note D#, 1
	note C_, 1
	note D#, 1
	note C_, 1
;Bar 13
	note F#, 4
	note C_, 3
	note D#, 1
	note D#, 2
	note D#, 2
	note C_, 4
;Bar 14
	callchannel Music_Cities2_Ch4_pattern3
Music_Cities2_Ch4_triangle:
	note E_, 2
	loopchannel 19, Music_Cities2_Ch4_triangle

	callchannel Music_Cities2_Ch4_pattern3

	note F#, 2
	note G#, 1
	note G#, 1
	note D_, 1
	note D_, 1
	loopchannel 0, Music_Cities2_Ch4_master

Music_Cities2_Ch4_pattern1:
	note D#, 2
	note F#, 2
	note C_, 3
	note D#, 1
	note D#, 4
	endchannel

Music_Cities2_Ch4_pattern2:
	note D#, 2
	note F#, 2
	note C_, 3
	note D#, 1
	note D#, 2
	note D#, 2
	endchannel

Music_Cities2_Ch4_pattern3:
	note E_, 2
	note E_, 2
	note E_, 4
	note E_, 2
	endchannel